<svg xmlns="http://www.w3.org/2000/svg" xmlns:xlink="http://www.w3.org/1999/xlink" viewBox="0 0 360 360"><path d="M13.3 179.3C13.3 85.8 89.1 10 182.6 10s169.3 75.8 169.3 169.3-75.8 169.3-169.3 169.3S13.3 272.8 13.3 179.3" fill="#fff"/><circle cx="182.6" cy="179.3" r="169.3" fill="none" stroke="#263271" stroke-width="1.255" stroke-miterlimit="3.864"/><path d="M19.8 179.3c0-89.9 72.9-162.7 162.7-162.7 89.9 0 162.7 72.9 162.7 162.7 0 89.9-72.9 162.7-162.7 162.7S19.8 269.2 19.8 179.3" fill="#263271"/><circle cx="182.6" cy="179.3" r="162.7" fill="none" stroke="#f99e1c" stroke-width="2.612" stroke-miterlimit="3.864"/><path fill="#f99e1c" d="M106.3 293.6l-7.3-4.2 1.5-8.3-6.2 5.7-7.4-4 3.4 7.7-6.1 5.8 8.4-.9 3.6 7.5 1.7-8.2z"/><path d="M60.1 179.3c0-67.6 54.8-122.5 122.5-122.5 67.6 0 122.5 54.8 122.5 122.5 0 67.6-54.8 122.5-122.5 122.5-67.6-.1-122.5-54.9-122.5-122.5" fill="#b0cfe7"/><defs><path id="a" d="M60.1 179.3c0 67.6 54.8 122.5 122.5 122.5 67.6 0 122.5-54.8 122.5-122.5 0-67.6-54.8-122.5-122.5-122.5-67.6 0-122.5 54.9-122.5 122.5"/></defs><clipPath id="b"><use xlink:href="#a" overflow="visible"/></clipPath><path d="M132.3 164.2l-5.4 11-6.5 17.5-5.1 16.5 42.5-8.1s-3.1-4.5-5.5-7c-5-5.2-12.2-8.3-15.5-10.3l-1.2-4.2-1.4-13.7-1.9-1.7z" clip-path="url(#b)" fill="#fff"/><defs><path id="c" d="M60.1 179.3c0 67.6 54.8 122.5 122.5 122.5 67.6 0 122.5-54.8 122.5-122.5 0-67.6-54.8-122.5-122.5-122.5-67.6 0-122.5 54.9-122.5 122.5"/></defs><clipPath id="d"><use xlink:href="#c" overflow="visible"/></clipPath><path clip-path="url(#d)" fill="none" stroke="#51575c" stroke-width=".97" stroke-miterlimit="3.864" d="M202.3 150l6.6-51.6h10.9l6 46.8"/><defs><path id="e" d="M60.1 179.3c0 67.6 54.8 122.5 122.5 122.5 67.6 0 122.5-54.8 122.5-122.5 0-67.6-54.8-122.5-122.5-122.5-67.6 0-122.5 54.9-122.5 122.5"/></defs><clipPath id="f"><use xlink:href="#e" overflow="visible"/></clipPath><path clip-path="url(#f)" fill="none" stroke="#51575c" stroke-width=".647" stroke-miterlimit="3.864" d="M203.1 143.7h22.4"/><defs><path id="g" d="M60.1 179.3c0 67.6 54.8 122.5 122.5 122.5 67.6 0 122.5-54.8 122.5-122.5 0-67.6-54.8-122.5-122.5-122.5-67.6 0-122.5 54.9-122.5 122.5"/></defs><clipPath id="h"><use xlink:href="#g" overflow="visible"/></clipPath><path clip-path="url(#h)" fill="none" stroke="#51575c" stroke-width=".647" stroke-miterlimit="3.864" d="M204.5 134.6h19.7"/><defs><path id="i" d="M60.1 179.3c0 67.6 54.8 122.5 122.5 122.5 67.6 0 122.5-54.8 122.5-122.5 0-67.6-54.8-122.5-122.5-122.5-67.6 0-122.5 54.9-122.5 122.5"/></defs><clipPath id="j"><use xlink:href="#i" overflow="visible"/></clipPath><path clip-path="url(#j)" fill="none" stroke="#51575c" stroke-width=".647" stroke-miterlimit="3.864" d="M205.5 125.5h17.7"/><defs><path id="k" d="M60.1 179.3c0 67.6 54.8 122.5 122.5 122.5 67.6 0 122.5-54.8 122.5-122.5 0-67.6-54.8-122.5-122.5-122.5-67.6 0-122.5 54.9-122.5 122.5"/></defs><clipPath id="l"><use xlink:href="#k" overflow="visible"/></clipPath><path clip-path="url(#l)" fill="none" stroke="#51575c" stroke-width=".647" stroke-miterlimit="3.864" d="M207.2 116.5h13.9"/><defs><path id="m" d="M60.1 179.3c0 67.6 54.8 122.5 122.5 122.5 67.6 0 122.5-54.8 122.5-122.5 0-67.6-54.8-122.5-122.5-122.5-67.6 0-122.5 54.9-122.5 122.5"/></defs><clipPath id="n"><use xlink:href="#m" overflow="visible"/></clipPath><path clip-path="url(#n)" fill="none" stroke="#51575c" stroke-width=".647" stroke-miterlimit="3.864" d="M207.5 107.4h12.9"/><defs><path id="o" d="M60.1 179.3c0 67.6 54.8 122.5 122.5 122.5 67.6 0 122.5-54.8 122.5-122.5 0-67.6-54.8-122.5-122.5-122.5-67.6 0-122.5 54.9-122.5 122.5"/></defs><clipPath id="p"><use xlink:href="#o" overflow="visible"/></clipPath><path clip-path="url(#p)" fill="none" stroke="#51575c" stroke-width=".647" stroke-miterlimit="3.864" d="M215 147.9l-10.2-4.5 17.7-9.1-15.6-9.1 13.9-9-12.2-9.1 10.8-8.8"/><defs><path id="q" d="M60.1 179.3c0 67.6 54.8 122.5 122.5 122.5 67.6 0 122.5-54.8 122.5-122.5 0-67.6-54.8-122.5-122.5-122.5-67.6 0-122.5 54.9-122.5 122.5"/></defs><clipPath id="r"><use xlink:href="#q" overflow="visible"/></clipPath><path clip-path="url(#r)" fill="none" stroke="#51575c" stroke-width=".647" stroke-miterlimit="3.864" d="M211.6 148.8l11.9-5.4-17.3-9.1 15.6-9.1-13.9-8.7 11.9-9.4-10.2-8.7"/><defs><path id="s" d="M60.1 179.3c0 67.6 54.8 122.5 122.5 122.5 67.6 0 122.5-54.8 122.5-122.5 0-67.6-54.8-122.5-122.5-122.5-67.6 0-122.5 54.9-122.5 122.5"/></defs><clipPath id="t"><use xlink:href="#s" overflow="visible"/></clipPath><path clip-path="url(#t)" fill="none" stroke="#51575c" stroke-width=".97" stroke-miterlimit="3.864" d="M214.3 93.7v54.6"/><defs><path id="u" d="M60.1 179.3c0 67.6 54.8 122.5 122.5 122.5 67.6 0 122.5-54.8 122.5-122.5 0-67.6-54.8-122.5-122.5-122.5-67.6 0-122.5 54.9-122.5 122.5"/></defs><clipPath id="v"><use xlink:href="#u" overflow="visible"/></clipPath><path clip-path="url(#v)" fill="#51575c" d="M196.6 180.6v-16.2h27.8v10.9l10.7-.3v5.6z"/><defs><path id="w" d="M60.1 179.3c0 67.6 54.8 122.5 122.5 122.5 67.6 0 122.5-54.8 122.5-122.5 0-67.6-54.8-122.5-122.5-122.5-67.6 0-122.5 54.9-122.5 122.5"/></defs><clipPath id="x"><use xlink:href="#w" overflow="visible"/></clipPath><path clip-path="url(#x)" fill="none" stroke="#51575c" stroke-width="1.255" stroke-miterlimit="3.864" d="M196.6 180.6v-16.2h27.8v10.9l10.7-.3v5.6z"/><defs><path id="y" d="M60.1 179.3c0 67.6 54.8 122.5 122.5 122.5 67.6 0 122.5-54.8 122.5-122.5 0-67.6-54.8-122.5-122.5-122.5-67.6 0-122.5 54.9-122.5 122.5"/></defs><clipPath id="z"><use xlink:href="#y" overflow="visible"/></clipPath><path clip-path="url(#z)" fill="none" stroke="#fff" stroke-width=".191" stroke-miterlimit="3.864" d="M382.3 165.1h27.9"/><defs><path id="A" d="M159.5 73.3c-2.5.7-17 5-20.3 6.1-3.2 1.1-3.6 2.5-3.6 5.8v11.1s-.9 3.3-1.6 5.4c-.6 1.9-.6 4.7-.6 6.9v44.9H128v-28.4h-6v-5.4h-6.8v-4h-2.9v-6.1H94.7v6.8h-3.2v19h-7.2v-10.8h-5v-2.9h-4.8c-9.1 17.1-14.3 36.7-14.3 57.4 0 7.6.7 15 2 22.1l134.4-19.6v-48.1c0-3.6.3-5.7-.8-7.2-.9-1.4-4.6-7.5-4.6-7.5v-10.1c0-5.6-5-3.6-6.8-2.9s-7 2.9-9.7 3.9c-3.5 1.3-5.1 4.4-5.1 6.5v15.1H166V76.6c0-3-1.6-3.8-3.4-3.8-1.1 0-2.2.3-3.1.5"/></defs><clipPath id="B"><use xlink:href="#A" overflow="visible"/></clipPath><linearGradient id="C" gradientUnits="userSpaceOnUse" x1="-311.061" y1="318.385" x2="-309.121" y2="318.385" gradientTransform="rotate(90 278.853 21673.116) scale(68.5444)"><stop offset="0" stop-color="#969a9c"/><stop offset="1" stop-color="#393d42"/></linearGradient><path clip-path="url(#B)" fill="url(#C)" d="M60.1 72.8h136.7v128.6H60.1z"/><defs><path id="D" d="M60.1 179.3c0 67.6 54.8 122.5 122.5 122.5 67.6 0 122.5-54.8 122.5-122.5 0-67.6-54.8-122.5-122.5-122.5-67.6 0-122.5 54.9-122.5 122.5"/></defs><clipPath id="E"><use xlink:href="#D" overflow="visible"/></clipPath><path d="M304.4 150.4c1.7-.1 4.7.1 7.1 0v-10.9c-2.8-.2-5.2-.1-7.1-.2v11.1zm9.1 0c2.1-.1 4.3.1 6.6 0v-9.9c-2.1-.3-4.3-.6-6.6-.7v10.6zm0-13.2l1.1.1c1.3.1 2.6.3 3.9.4l-5-8.4v7.9zm-8.2-.3c1.8 0 3.9.1 6.3.2v-8.7l-6.1 8.4-.2.1zm16.7 13.5c2.2-.1 4.3 0 6.4 0v-8.3c-2-.5-4.1-.9-6.4-1.3v9.6zm-11.9-23.3c-1.4-.1-4.1-.4-5.7-.4v7.5l5.7-7.1zm63.5 38h-6.8c3.2 3.7 6.8 9 6.8 9v-9zm-9.2-11.1c-3.6-.3-7-.6-9.6-.8 2.3 2 5.4 4.7 7.8 7.1.5.5 1.2 1.3 1.8 1.9V154zm5.5.5l.9.1 2.7.3v7.9h-6.7l3.1-8.3zm5.3.5l3.1.4 2.1 7.4h-5.2V155zm10.5 1.2l3.1.4v6.2h-5l1.9-6.6zm9.3 6.6h-4.8v-6c.9.1 1.9.2 2.7.4l2.1 5.6zm5-4.4l1.8.3v4.1h-3.2l1.4-4.4zm3.3.6l2.2.4 1.2 3.4h-3.4V159zm-64-8.6h7.7c-2.3-1.5-5.4-3.4-7.7-4.6v4.6zm-8.7 0h6.4v-5.5c-1.9-.8-3.9-1.6-6.4-2.3v7.8zm17.9-11.1v9.1c1.5 1 2.6 1.8 3.2 2.2h.7c.9.1 1.5.1 3 .2l-6.9-11.5zm-24.7-.7c1.6.3 3.1.6 4.6 1v-7.8l-4.6 6.8zm6.8-3.9v5.4c1.6.4 3.1.9 4.5 1.3l-4.5-6.7zm9.7 8.8c1.9.9 4.1 2.3 6.2 3.6v-10.3l-6.2 6.7zm35 29.5v-7.9h4.6l-4.6 7.9zm-9-21.3l2.6.2 3.1-8.1c-1.8-.6-3.8-1.3-5.7-1.9v9.8zM379 153l2.4.3v-6.5c-1.3-.4-2.4-.7-3.7-1.1l-1.3-.4 2.6 7.7zm3.8.5l2 .2 1.8-5.4c-1.2-.3-2.5-.7-3.8-1v6.2zm3.5.4l2.4.3v-5.4l-.7-.2-1.7 5.3zm7.5 1l1.4.2.8.2v-4.7c-1.3-.3-2.7-.6-4.2-1l2 5.3zm3.7.6l1.6.3 1.3-4.4c-.9-.2-1.8-.3-2.9-.5v4.6zm8.9 1.6l2.2.4v-4.9c-.8-.1-2.1-.3-3.8-.5l1.6 5zm-49.2-6.2c2.1.2 4.6.4 7.2.6v-9l-7.2 8.4zm13.6 1.2l2.7.3V145l-2.7 7.1zm4.4-6.2v6.7l2.2.2-2.2-6.9zm15 8.5l1.9.2-1.9-5.1v4.9zm10.4 1.6l1.2.2v-4.3l-1.2 4.1zm2.7.5l1.5.3-1.5-3.9v3.6zm-40-15.7l-5.7-2.1v8.5l5.7-6.4zm-7.8 6.1V138c-2.3-.8-4.6-1.7-6.7-2.4l6.7 11.3zm-9.6-12.3c-1.5-.5-2.9-1-4.2-1.3l-2.5-.7v9l6.7-7zm-8.8 6.3v-9c-2.1-.6-4.1-1.1-6.6-1.7l6.6 10.7zM322 128.6v8.6l5.4-7.7c-1.7-.3-3.5-.7-5.4-.9zm-2 8.1v-8.6c-1.6-.3-3.9-.6-5.7-.8l5.7 9.4zm46.3 22.4v-5l1.9.2-1.9 4.8zm13.5-3.5l1.6.2v5l-1.6-5.2zm3 5v-4.7l1.3.2-1.3 4.5zm11.8-3.1l.5.1.8.1v3.5l-1.3-3.7zm2.9 3.8v-3.4l1.1.2-1.1 3.2zm9.8-1.6l1.3.2v3l-1.3-3.2zm-105-9.3c-1.7-.1-4.7.1-7.1 0v-10.9c2.8-.2 5.2-.1 7.1-.2v11.1zm-9 0c-2.1-.1-4.3.1-6.6 0v-9.9c2.1-.3 4.3-.6 6.6-.7v10.6zm0-13.2l-1.1.1c-1.3.1-2.6.3-3.9.4l5-8.4v7.9zm8.2-.3c-1.8 0-3.9.1-6.3.2v-8.7l6.1 8.4.2.1zm-16.8 13.5c-2.2-.1-4.3 0-6.4 0v-8.3c2-.5 4.1-.9 6.4-1.3v9.6zm12-23.3c1.4-.1 4.1-.4 5.7-.4v7.5l-5.7-7.1zm-63.5 38h6.8c-3.2 3.7-6.8 9-6.8 9v-9zm9.2-11.1c3.6-.3 7-.6 9.6-.8-2.3 2-5.4 4.7-7.8 7.1-.5.5-1.2 1.3-1.8 1.9V154zm-5.6.5l-.9.1-2.7.3v7.9h6.7l-3.1-8.3zm-5.2.5l-3.1.4-2.1 7.4h5.2V155zm-10.5 1.2l-3.1.4v6.2h5l-1.9-6.6zm-9.4 6.6h4.8v-6c-.9.1-1.9.2-2.7.4l-2.1 5.6zm-4.9-4.4l-1.8.3v4.1h3.2l-1.4-4.4zm-3.4.6l-2.2.4-1.2 3.4h3.4V159zm64.1-8.6h-7.7c2.3-1.5 5.4-3.4 7.7-4.6v4.6zm8.6 0h-6.4v-5.5c1.9-.8 3.9-1.6 6.4-2.3v7.8zm-17.8-11.1v9.1c-1.5 1-2.6 1.8-3.2 2.2h-.7c-.9.1-1.5.1-3 .2l6.9-11.5zm24.7-.7c-1.6.3-3.2.6-4.6 1v-7.8l4.6 6.8zm-6.9-3.9v5.4c-1.6.4-3.1.9-4.5 1.3l4.5-6.7zm-9.6 8.8c-1.9.9-4.1 2.3-6.2 3.6v-10.3l6.2 6.7zm-35 29.5v-7.9h-4.6l4.6 7.9zm9-21.3l-2.6.2-3.1-8.1c1.8-.6 3.8-1.3 5.7-1.9v9.8zm-12.7 1.3l-2.4.3v-6.5c1.3-.4 2.4-.7 3.7-1.1l1.3-.4-2.6 7.7zm-3.8.5l-2 .2-1.8-5.4c1.2-.3 2.5-.7 3.8-1v6.2zm-3.6.4l-2.4.3v-5.4l.7-.2 1.7 5.3zm-7.4 1l-1.4.2-.8.2v-4.7c1.3-.3 2.7-.6 4.2-1l-2 5.3zm-3.7.6l-1.6.3-1.3-4.4c.9-.2 1.8-.3 2.9-.5v4.6zm-9 1.6l-2.2.4v-4.9c.8-.1 2.1-.3 3.8-.5l-1.6 5zm49.3-6.2c-2.1.2-4.6.4-7.2.6v-9l7.2 8.4zm-13.7 1.2l-2.7.3V145l2.7 7.1zm-4.3-6.2v6.7l-2.2.2 2.2-6.9zm-15.1 8.5l-1.9.2 1.9-5.1v4.9zm-10.4 1.6l-1.2.2v-4.3l1.2 4.1zm-2.7.5l-1.5.3 1.5-3.9v3.6zm40.1-15.7l5.7-2.1v8.5l-5.7-6.4zm7.7 6.1V138c2.3-.8 4.6-1.7 6.7-2.4l-6.7 11.3zm9.7-12.3c1.5-.5 2.9-1 4.2-1.3l2.5-.7v9l-6.7-7zm8.8 6.3v-9c2.1-.6 4.1-1.1 6.6-1.7l-6.6 10.7zm15-12.3v8.6l-5.4-7.7c1.8-.3 3.5-.7 5.4-.9zm2 8.1v-8.6c1.6-.3 3.9-.6 5.7-.8l-5.7 9.4zm-46.2 22.4v-5l-1.9.2 1.9 4.8zm-13.6-3.5l-1.6.2v5l1.6-5.2zm-2.9 5v-4.7l-1.3.2 1.3 4.5zm-11.9-3.1l-.5.1-.8.1v3.5l1.3-3.7zm-2.8 3.8v-3.4l-1.1.2 1.1 3.2zm-9.8-1.6l-1.3.2v3l1.3-3.2zm-3-9.7s13.1-1.2 32-7.1c12.1-3.8 27.8-10 36-12.5 7.7-2.3 20.8-6 37.1-6.5.6-.1 2.9-.1 3.5-.1 16.3.5 29.4 4.3 37.1 6.6 8.2 2.5 23.9 8.7 36 12.5 18.9 5.9 32 7.1 32 7.1v15.1h-27.9l-6.1 10.2H371s-5.6-8.7-9.7-12.8-10.7-9.5-10.7-9.5h-94.5s-6.6 5.4-10.7 9.5-9.7 12.8-9.7 12.8h-5.3l-6.1-10.2h-27.9V150h.1z" clip-path="url(#E)" fill="#393d42"/><defs><path id="F" d="M60.1 179.3c0 67.6 54.8 122.5 122.5 122.5 67.6 0 122.5-54.8 122.5-122.5 0-67.6-54.8-122.5-122.5-122.5-67.6 0-122.5 54.9-122.5 122.5"/></defs><clipPath id="G"><use xlink:href="#F" overflow="visible"/></clipPath><path d="M304.4 150.4c1.7-.1 4.7.1 7.1 0v-10.9c-2.8-.2-5.2-.1-7.1-.2v11.1zm9.1 0c2.1-.1 4.3.1 6.6 0v-9.9c-2.1-.3-4.3-.6-6.6-.7v10.6zm0-13.2l1.1.1c1.3.1 2.6.3 3.9.4l-5-8.4v7.9zm-8.2-.3c1.8 0 3.9.1 6.3.2v-8.7l-6.1 8.4-.2.1zm16.7 13.5c2.2-.1 4.3 0 6.4 0v-8.3c-2-.5-4.1-.9-6.4-1.3v9.6zm-11.9-23.3c-1.4-.1-4.1-.4-5.7-.4v7.5l5.7-7.1zm63.5 38h-6.8c3.2 3.7 6.8 9 6.8 9v-9zm-9.2-11.1c-3.6-.3-7-.6-9.6-.8 2.3 2 5.4 4.7 7.8 7.1.5.5 1.2 1.3 1.8 1.9V154zm5.5.5l.9.1 2.7.3v7.9h-6.7l3.1-8.3zm5.3.5l3.1.4 2.1 7.4h-5.2V155zm10.5 1.2l3.1.4v6.2h-5l1.9-6.6zm9.3 6.6h-4.8v-6c.9.1 1.9.2 2.7.4l2.1 5.6zm5-4.4l1.8.3v4.1h-3.2l1.4-4.4zm3.3.6l2.2.4 1.2 3.4h-3.4V159zm-64-8.6h7.7c-2.3-1.5-5.4-3.4-7.7-4.6v4.6zm-8.7 0h6.4v-5.5c-1.9-.8-3.9-1.6-6.4-2.3v7.8zm17.9-11.1v9.1c1.5 1 2.6 1.8 3.2 2.2h.7c.9.1 1.5.1 3 .2l-6.9-11.5zm-24.7-.7c1.6.3 3.1.6 4.6 1v-7.8l-4.6 6.8zm6.8-3.9v5.4c1.6.4 3.1.9 4.5 1.3l-4.5-6.7zm9.7 8.8c1.9.9 4.1 2.3 6.2 3.6v-10.3l-6.2 6.7zm35 29.5v-7.9h4.6l-4.6 7.9zm-9-21.3l2.6.2 3.1-8.1c-1.8-.6-3.8-1.3-5.7-1.9v9.8zM379 153l2.4.3v-6.5c-1.3-.4-2.4-.7-3.7-1.1l-1.3-.4 2.6 7.7zm3.8.5l2 .2 1.8-5.4c-1.2-.3-2.5-.7-3.8-1v6.2zm3.5.4l2.4.3v-5.4l-.7-.2-1.7 5.3zm7.5 1l1.4.2.8.2v-4.7c-1.3-.3-2.7-.6-4.2-1l2 5.3zm3.7.6l1.6.3 1.3-4.4c-.9-.2-1.8-.3-2.9-.5v4.6zm8.9 1.6l2.2.4v-4.9c-.8-.1-2.1-.3-3.8-.5l1.6 5zm-49.2-6.2c2.1.2 4.6.4 7.2.6v-9l-7.2 8.4zm13.6 1.2l2.7.3V145l-2.7 7.1zm4.4-6.2v6.7l2.2.2-2.2-6.9zm15 8.5l1.9.2-1.9-5.1v4.9zm10.4 1.6l1.2.2v-4.3l-1.2 4.1zm2.7.5l1.5.3-1.5-3.9v3.6zm-40-15.7l-5.7-2.1v8.5l5.7-6.4zm-7.8 6.1V138c-2.3-.8-4.6-1.7-6.7-2.4l6.7 11.3zm-9.6-12.3c-1.5-.5-2.9-1-4.2-1.3l-2.5-.7v9l6.7-7zm-8.8 6.3v-9c-2.1-.6-4.1-1.1-6.6-1.7l6.6 10.7zM322 128.6v8.6l5.4-7.7c-1.7-.3-3.5-.7-5.4-.9zm-2 8.1v-8.6c-1.6-.3-3.9-.6-5.7-.8l5.7 9.4zm46.3 22.4v-5l1.9.2-1.9 4.8zm13.5-3.5l1.6.2v5l-1.6-5.2zm3 5v-4.7l1.3.2-1.3 4.5zm11.8-3.1l.5.1.8.1v3.5l-1.3-3.7zm2.9 3.8v-3.4l1.1.2-1.1 3.2zm9.8-1.6l1.3.2v3l-1.3-3.2zm-105-9.3c-1.7-.1-4.7.1-7.1 0v-10.9c2.8-.2 5.2-.1 7.1-.2v11.1zm-9 0c-2.1-.1-4.3.1-6.6 0v-9.9c2.1-.3 4.3-.6 6.6-.7v10.6zm0-13.2l-1.1.1c-1.3.1-2.6.3-3.9.4l5-8.4v7.9zm8.2-.3c-1.8 0-3.9.1-6.3.2v-8.7l6.1 8.4.2.1zm-16.8 13.5c-2.2-.1-4.3 0-6.4 0v-8.3c2-.5 4.1-.9 6.4-1.3v9.6zm12-23.3c1.4-.1 4.1-.4 5.7-.4v7.5l-5.7-7.1zm-63.5 38h6.8c-3.2 3.7-6.8 9-6.8 9v-9zm9.2-11.1c3.6-.3 7-.6 9.6-.8-2.3 2-5.4 4.7-7.8 7.1-.5.5-1.2 1.3-1.8 1.9V154zm-5.6.5l-.9.1-2.7.3v7.9h6.7l-3.1-8.3zm-5.2.5l-3.1.4-2.1 7.4h5.2V155zm-10.5 1.2l-3.1.4v6.2h5l-1.9-6.6zm-9.4 6.6h4.8v-6c-.9.1-1.9.2-2.7.4l-2.1 5.6zm-4.9-4.4l-1.8.3v4.1h3.2l-1.4-4.4zm-3.4.6l-2.2.4-1.2 3.4h3.4V159zm64.1-8.6h-7.7c2.3-1.5 5.4-3.4 7.7-4.6v4.6zm8.6 0h-6.4v-5.5c1.9-.8 3.9-1.6 6.4-2.3v7.8zm-17.8-11.1v9.1c-1.5 1-2.6 1.8-3.2 2.2h-.7c-.9.1-1.5.1-3 .2l6.9-11.5zm24.7-.7c-1.6.3-3.2.6-4.6 1v-7.8l4.6 6.8zm-6.9-3.9v5.4c-1.6.4-3.1.9-4.5 1.3l4.5-6.7zm-9.6 8.8c-1.9.9-4.1 2.3-6.2 3.6v-10.3l6.2 6.7zm-35 29.5v-7.9h-4.6l4.6 7.9zm9-21.3l-2.6.2-3.1-8.1c1.8-.6 3.8-1.3 5.7-1.9v9.8zm-12.7 1.3l-2.4.3v-6.5c1.3-.4 2.4-.7 3.7-1.1l1.3-.4-2.6 7.7zm-3.8.5l-2 .2-1.8-5.4c1.2-.3 2.5-.7 3.8-1v6.2zm-3.6.4l-2.4.3v-5.4l.7-.2 1.7 5.3zm-7.4 1l-1.4.2-.8.2v-4.7c1.3-.3 2.7-.6 4.2-1l-2 5.3zm-3.7.6l-1.6.3-1.3-4.4c.9-.2 1.8-.3 2.9-.5v4.6zm-9 1.6l-2.2.4v-4.9c.8-.1 2.1-.3 3.8-.5l-1.6 5zm49.3-6.2c-2.1.2-4.6.4-7.2.6v-9l7.2 8.4zm-13.7 1.2l-2.7.3V145l2.7 7.1zm-4.3-6.2v6.7l-2.2.2 2.2-6.9zm-15.1 8.5l-1.9.2 1.9-5.1v4.9zm-10.4 1.6l-1.2.2v-4.3l1.2 4.1zm-2.7.5l-1.5.3 1.5-3.9v3.6zm40.1-15.7l5.7-2.1v8.5l-5.7-6.4zm7.7 6.1V138c2.3-.8 4.6-1.7 6.7-2.4l-6.7 11.3zm9.7-12.3c1.5-.5 2.9-1 4.2-1.3l2.5-.7v9l-6.7-7zm8.8 6.3v-9c2.1-.6 4.1-1.1 6.6-1.7l-6.6 10.7zm15-12.3v8.6l-5.4-7.7c1.8-.3 3.5-.7 5.4-.9zm2 8.1v-8.6c1.6-.3 3.9-.6 5.7-.8l-5.7 9.4zm-46.2 22.4v-5l-1.9.2 1.9 4.8zm-13.6-3.5l-1.6.2v5l1.6-5.2zm-2.9 5v-4.7l-1.3.2 1.3 4.5zm-11.9-3.1l-.5.1-.8.1v3.5l1.3-3.7zm-2.8 3.8v-3.4l-1.1.2 1.1 3.2zm-9.8-1.6l-1.3.2v3l1.3-3.2zm-3-9.7s13.1-1.2 32-7.1c12.1-3.8 27.8-10 36-12.5 7.7-2.3 20.8-6 37.1-6.5.6-.1 2.9-.1 3.5-.1 16.3.5 29.4 4.3 37.1 6.6 8.2 2.5 23.9 8.7 36 12.5 18.9 5.9 32 7.1 32 7.1v15.1h-27.9l-6.1 10.2H371s-5.6-8.7-9.7-12.8-10.7-9.5-10.7-9.5h-94.5s-6.6 5.4-10.7 9.5-9.7 12.8-9.7 12.8h-5.3l-6.1-10.2h-27.9V150h.1z" clip-path="url(#G)" fill="none" stroke="#393d42" stroke-width=".191" stroke-miterlimit="3.864"/><defs><path id="H" d="M186 250.7c-1.8 1.5-2.7 1.8-4.2 2.4-13.8 2.2-23.8 12.9-26.7 15.6-1.1 0-2.2 1.6-3.5 3.8-1.3.5-4.7 5.6-5.8 8.4-1.1 2.7.9 1.6 2 1.5 1.1-.2 6 0 7.1 1.8 0 2.2-4.4 2-5.5 1.8s-2.4-.4-2 .4c.4.7 1.5 1.3 3.1 1.5s7.8-.5 9.3-1.6c.9.2 4.4.4 5.8-.7 2.4 0 18-7.1 20-8.4s6.5-5.6 8.5-7.3c2-1.6 7.8-2.7 8.9-2.4 1.1.4.7 3.5 0 4.5.7.4 1.8-.9 2.5-1.8.7-.4 1.4-.2 2 0s1.2.3 1.6 0c-.7-.4-1.3-1.1-1.8-2s1.3-.9 3.3-.5 2.9 2.4 2.2 3.8c-.7 1.5-2.5 1.5-5.1 1.8-2.5.4-10.5 4.5-12 7.3.9-1.1 2.9-.9 5.3-.7 2.4.2 2.7 2.5 4.7 2.5s4.5 0 6.9 1.6 2.7 2.9 4.9 2.9 5.5 4.4 6.2 5.5c1.1-2.7-.7-11.8-1.5-13.1-.7-1.3-1.8-3.5-1.6-4.4 1.1-9.3-7.8-19.1-14.9-21.3 0 0 .9-.9 1.8-1.3-1-.4-7-3.9-7-3.9H199l.1-1.2s-2.9-2.4-3.6-2.7c-2.1 1.4-7.7 4.8-9.5 6.2"/></defs><clipPath id="I"><use xlink:href="#H" overflow="visible"/></clipPath><linearGradient id="J" gradientUnits="userSpaceOnUse" x1="-293.539" y1="312.914" x2="-291.599" y2="312.914" gradientTransform="rotate(90 208.767 7685.197) scale(24.6367)"><stop offset="0" stop-color="#16204b"/><stop offset="1" stop-color="#ecd1a6"/></linearGradient><path clip-path="url(#I)" fill="url(#J)" d="M144.7 244.6h80.2v47.8h-80.2z"/><defs><path id="K" d="M153.8 273.1c2 .5 3.8 1.1 2.7 1.8-1.1.7-3.3 1.5-4.4.9 1.3.7 1.9 1.2 1.5 2.2-.7 1.6-1.6 2.4-3.1 1.5.2.7 0 1.1-1.5 1.3 4.4-.4 8.5.9 9.3 2.2.7 1.3-1.5 2-2 2.4s.4.9 2 .2 4.5-3.1 3.8-6.7c-.7-3.4-5.3-5.7-7.8-5.7-.2-.2-.3-.1-.5-.1"/></defs><clipPath id="L"><use xlink:href="#K" overflow="visible"/></clipPath><linearGradient id="M" gradientUnits="userSpaceOnUse" x1="-221.59" y1="292.808" x2="-219.651" y2="292.808" gradientTransform="rotate(90 175.854 1907.408) scale(6.582)"><stop offset="0" stop-color="#b64326"/><stop offset="1" stop-color="#f4e5cf"/></linearGradient><path clip-path="url(#L)" fill="url(#M)" d="M149.1 273h13.8v13.1h-13.8z"/><defs><path id="N" d="M160 270c.9.7.2 1.3-1.1 1.1.9.9-.9 1-2.2 1.1 2.2.2 6 3.3 6.7 5.3s.5 5.3-1.3 7.1c.2 1.1 2.5 1.1 3.3-.4.7-1.5.7-7.1.2-7.8-.5-.7.4-2.2-.7-3.6-1.1-1.5-2.7-3.5-4-3.6h-.6c-.8-.2-1.1.2-.3.8"/></defs><clipPath id="O"><use xlink:href="#N" overflow="visible"/></clipPath><linearGradient id="P" gradientUnits="userSpaceOnUse" x1="-242.947" y1="298.675" x2="-241.008" y2="298.675" gradientTransform="rotate(90 180.195 2489.379) scale(8.3975)"><stop offset="0" stop-color="#b64326"/><stop offset="1" stop-color="#f4e5cf"/></linearGradient><path clip-path="url(#O)" fill="url(#P)" d="M156.7 269h9.5v16.6h-9.5z"/><defs><path id="Q" d="M186.7 255.6c-8 1.5-18.2 6.2-24.2 12.7 1.6.7 3.5 2.2 4.2 4.9.7 2.7.7 8.5.2 9.8 4-1.3 14.4-4.9 17.8-8.4 3.5-3.5 6.9-7.8 10.7-8.9s14-2.9 16.4-.4 3.3 5.6 2.4 7.1c-.9 1.5 0 3.5 1.3 3.3.5.9 2.2 1.8 3.1 1.3.9-.5.9-3.6.7-5.3-.2-1.6-4-10.2-7.3-12.5-2.3-1.7-14.8-3.9-22-3.9-1.3.1-2.4.2-3.3.3"/></defs><clipPath id="R"><use xlink:href="#Q" overflow="visible"/></clipPath><linearGradient id="S" gradientUnits="userSpaceOnUse" x1="-274.725" y1="306.859" x2="-272.785" y2="306.859" gradientTransform="rotate(90 197.212 4375.628) scale(14.2798)"><stop offset="0" stop-color="#b64326"/><stop offset="1" stop-color="#f4e5cf"/></linearGradient><path clip-path="url(#R)" fill="url(#S)" d="M162.5 255.4h56.9v27.7h-56.9z"/><defs><path id="T" d="M60.1 179.3c0 67.6 54.8 122.5 122.5 122.5 67.6 0 122.5-54.8 122.5-122.5 0-67.6-54.8-122.5-122.5-122.5-67.6 0-122.5 54.9-122.5 122.5"/></defs><clipPath id="U"><use xlink:href="#T" overflow="visible"/></clipPath><path d="M157.4 268.5c4.5-5.5 15.8-12.7 25.6-14.4.6 0 .5.4.2.4-9.8 1.6-21.1 8.9-25.6 14.4 0 0-.4 0-.2-.4" clip-path="url(#U)" fill="#fff"/><defs><path id="V" d="M186.2 252.9l2.4.2 7.5-7.6c-.1-.1-8.5 6.7-9.9 7.4"/></defs><clipPath id="W"><use xlink:href="#V" overflow="visible"/></clipPath><linearGradient id="X" gradientUnits="userSpaceOnUse" x1="-159.8" y1="269.794" x2="-157.861" y2="269.794" gradientTransform="rotate(90 189.488 1064.464) scale(3.9395)"><stop offset="0" stop-color="#f4e5cf"/><stop offset="1" stop-color="#b64326"/></linearGradient><path clip-path="url(#W)" fill="url(#X)" d="M186.2 245.4h9.8v7.6h-9.8z"/><defs><path id="Y" d="M190.9 253.1l1.7.3 5.6-6.1z"/></defs><clipPath id="Z"><use xlink:href="#Y" overflow="visible"/></clipPath><linearGradient id="aa" gradientUnits="userSpaceOnUse" x1="-122.09" y1="257.23" x2="-120.151" y2="257.23" gradientTransform="rotate(90 189.161 825.824) scale(3.1895)"><stop offset="0" stop-color="#f4e5cf"/><stop offset="1" stop-color="#b64326"/></linearGradient><path clip-path="url(#Z)" fill="url(#aa)" d="M190.9 247.3h7.3v6.2h-7.3z"/><defs><path id="ab" d="M194.7 253.4l1.8.4 4.6-4.5z"/></defs><clipPath id="ac"><use xlink:href="#ab" overflow="visible"/></clipPath><linearGradient id="ad" gradientUnits="userSpaceOnUse" x1="-50.482" y1="233.295" x2="-48.542" y2="233.295" gradientTransform="rotate(90 188.641 556.265) scale(2.3447)"><stop offset="0" stop-color="#f4e5cf"/><stop offset="1" stop-color="#b64326"/></linearGradient><path clip-path="url(#ac)" fill="url(#ad)" d="M194.7 249.3h6.4v4.5h-6.4z"/><defs><path id="ae" d="M198.5 254l1.2.3 3.8-3z"/></defs><clipPath id="af"><use xlink:href="#ae" overflow="visible"/></clipPath><linearGradient id="ag" gradientUnits="userSpaceOnUse" x1="87.984" y1="187.576" x2="89.922" y2="187.576" gradientTransform="rotate(90 188.14 303.209) scale(1.5479)"><stop offset="0" stop-color="#f4e5cf"/><stop offset="1" stop-color="#b64326"/></linearGradient><path clip-path="url(#af)" fill="url(#ag)" d="M198.5 251.3h5v3h-5z"/><defs><path id="ah" d="M201.9 254.2l1.6.1 2.3-2z"/></defs><clipPath id="ai"><use xlink:href="#ah" overflow="visible"/></clipPath><linearGradient id="aj" gradientUnits="userSpaceOnUse" x1="292.361" y1="118.985" x2="294.298" y2="118.985" gradientTransform="rotate(90 188.091 138.575) scale(1.0322)"><stop offset="0" stop-color="#f4e5cf"/><stop offset="1" stop-color="#b64326"/></linearGradient><path clip-path="url(#ai)" fill="url(#aj)" d="M201.9 252.3h3.9v2h-3.9z"/><defs><path id="ak" d="M60.1 179.3c0 67.6 54.8 122.5 122.5 122.5 67.6 0 122.5-54.8 122.5-122.5 0-67.6-54.8-122.5-122.5-122.5-67.6 0-122.5 54.9-122.5 122.5"/></defs><clipPath id="al"><use xlink:href="#ak" overflow="visible"/></clipPath><path d="M219.6 277.2c2.1 2.6 3.5 9.3 3.3 11.9-.5-2.1-2-9.4-4.2-11.4l.9-.5z" clip-path="url(#al)" fill="#b64326"/><defs><path id="am" d="M60.1 179.3c0 67.6 54.8 122.5 122.5 122.5 67.6 0 122.5-54.8 122.5-122.5 0-67.6-54.8-122.5-122.5-122.5-67.6 0-122.5 54.9-122.5 122.5"/></defs><clipPath id="an"><use xlink:href="#am" overflow="visible"/></clipPath><path d="M212.9 274.1c-1.5-.2-7.8 0-12.3 3.6 3.8-1.2 5.9-3.1 12.5-2.5l-.2-1.1z" clip-path="url(#an)" fill="#b64326"/><defs><path id="ao" d="M60.1 179.3c0 67.6 54.8 122.5 122.5 122.5 67.6 0 122.5-54.8 122.5-122.5 0-67.6-54.8-122.5-122.5-122.5-67.6 0-122.5 54.9-122.5 122.5"/></defs><clipPath id="ap"><use xlink:href="#ao" overflow="visible"/></clipPath><path d="M213.2 275.9c-1.5-.1-8 1.5-9.9 3.3 2.1-1 8.4-3 11.1-2.7l-1.2-.6z" clip-path="url(#ap)" fill="#b64326"/><defs><path id="aq" d="M60.1 179.3c0 67.6 54.8 122.5 122.5 122.5 67.6 0 122.5-54.8 122.5-122.5 0-67.6-54.8-122.5-122.5-122.5-67.6 0-122.5 54.9-122.5 122.5"/></defs><clipPath id="ar"><use xlink:href="#aq" overflow="visible"/></clipPath><path d="M217 277.8c1.5 1.5 2.8 6.1 2.6 8.9-.3-1.4.1-4.6-3.6-9l1 .1z" clip-path="url(#ar)" fill="#b64326"/><defs><path id="as" d="M60.1 179.3c0 67.6 54.8 122.5 122.5 122.5 67.6 0 122.5-54.8 122.5-122.5 0-67.6-54.8-122.5-122.5-122.5-67.6 0-122.5 54.9-122.5 122.5"/></defs><clipPath id="at"><use xlink:href="#as" overflow="visible"/></clipPath><path d="M215.2 277.4c.7 1.2 1.5 4.7.7 7.9.1-2.4-.1-5.5-1.4-8l.7.1z" clip-path="url(#at)" fill="#b64326"/><defs><path id="au" d="M60.1 179.3c0 67.6 54.8 122.5 122.5 122.5 67.6 0 122.5-54.8 122.5-122.5 0-67.6-54.8-122.5-122.5-122.5-67.6 0-122.5 54.9-122.5 122.5"/></defs><clipPath id="av"><use xlink:href="#au" overflow="visible"/></clipPath><path d="M213.6 277.2c-2 .3-7.2 1.5-7.8 3.5 1.9-1.6 5.5-2.9 8.2-3l-.4-.5z" clip-path="url(#av)" fill="#b64326"/><defs><path id="aw" d="M60.1 179.3c0 67.6 54.8 122.5 122.5 122.5 67.6 0 122.5-54.8 122.5-122.5 0-67.6-54.8-122.5-122.5-122.5-67.6 0-122.5 54.9-122.5 122.5"/></defs><clipPath id="ax"><use xlink:href="#aw" overflow="visible"/></clipPath><path d="M214.1 278.5c.5.8.6 3.3-.2 5 .2-1.5.4-3.6-.3-5.1l.5.1z" clip-path="url(#ax)" fill="#b64326"/><defs><path id="ay" d="M60.1 179.3c0 67.6 54.8 122.5 122.5 122.5 67.6 0 122.5-54.8 122.5-122.5 0-67.6-54.8-122.5-122.5-122.5-67.6 0-122.5 54.9-122.5 122.5"/></defs><clipPath id="az"><use xlink:href="#ay" overflow="visible"/></clipPath><path d="M213.1 279.1c-.5 0-3.2 1.3-3.9 2.4.1-.8 3.1-2.8 4-3.1l-.1.7z" clip-path="url(#az)" fill="#b64326"/><defs><path id="aA" d="M60.1 179.3c0 67.6 54.8 122.5 122.5 122.5 67.6 0 122.5-54.8 122.5-122.5 0-67.6-54.8-122.5-122.5-122.5-67.6 0-122.5 54.9-122.5 122.5"/></defs><clipPath id="aB"><use xlink:href="#aA" overflow="visible"/></clipPath><path d="M163.8 268.3c0-.3-.3-.6-.6-.6s-.6.3-.6.6.3.6.6.6.6-.3.6-.6" clip-path="url(#aB)" fill="#fff"/><defs><path id="aC" d="M60.1 179.3c0 67.6 54.8 122.5 122.5 122.5 67.6 0 122.5-54.8 122.5-122.5 0-67.6-54.8-122.5-122.5-122.5-67.6 0-122.5 54.9-122.5 122.5"/></defs><clipPath id="aD"><use xlink:href="#aC" overflow="visible"/></clipPath><path d="M165.1 268.5c0-.2.2-.4.4-.4s.4.2.4.4-.2.4-.4.4c-.2.1-.4-.1-.4-.4" clip-path="url(#aD)" fill="#fff"/><defs><path id="aE" d="M60.1 179.3c0 67.6 54.8 122.5 122.5 122.5 67.6 0 122.5-54.8 122.5-122.5 0-67.6-54.8-122.5-122.5-122.5-67.6 0-122.5 54.9-122.5 122.5"/></defs><clipPath id="aF"><use xlink:href="#aE" overflow="visible"/></clipPath><path d="M164.6 269.9c0-.2.2-.4.4-.4s.4.2.4.4-.2.4-.4.4c-.2.1-.4-.1-.4-.4" clip-path="url(#aF)" fill="#fff"/><defs><path id="aG" d="M60.1 179.3c0 67.6 54.8 122.5 122.5 122.5 67.6 0 122.5-54.8 122.5-122.5 0-67.6-54.8-122.5-122.5-122.5-67.6 0-122.5 54.9-122.5 122.5"/></defs><clipPath id="aH"><use xlink:href="#aG" overflow="visible"/></clipPath><path d="M165.2 267c0-.3-.3-.6-.6-.6s-.6.3-.6.6.3.6.6.6c.4 0 .6-.3.6-.6" clip-path="url(#aH)" fill="#fff"/><defs><path id="aI" d="M60.1 179.3c0 67.6 54.8 122.5 122.5 122.5 67.6 0 122.5-54.8 122.5-122.5 0-67.6-54.8-122.5-122.5-122.5-67.6 0-122.5 54.9-122.5 122.5"/></defs><clipPath id="aJ"><use xlink:href="#aI" overflow="visible"/></clipPath><path d="M165.7 265.9c0-.3.3-.6.6-.6s.6.3.6.6-.3.6-.6.6c-.4 0-.6-.3-.6-.6" clip-path="url(#aJ)" fill="#fff"/><defs><path id="aK" d="M60.1 179.3c0 67.6 54.8 122.5 122.5 122.5 67.6 0 122.5-54.8 122.5-122.5 0-67.6-54.8-122.5-122.5-122.5-67.6 0-122.5 54.9-122.5 122.5"/></defs><clipPath id="aL"><use xlink:href="#aK" overflow="visible"/></clipPath><path d="M166.9 266.7c0-.3.2-.5.5-.5s.5.2.5.5-.2.5-.5.5-.5-.2-.5-.5" clip-path="url(#aL)" fill="#fff"/><defs><path id="aM" d="M60.1 179.3c0 67.6 54.8 122.5 122.5 122.5 67.6 0 122.5-54.8 122.5-122.5 0-67.6-54.8-122.5-122.5-122.5-67.6 0-122.5 54.9-122.5 122.5"/></defs><clipPath id="aN"><use xlink:href="#aM" overflow="visible"/></clipPath><path d="M168.7 264.8c0-.3-.2-.5-.5-.5s-.5.2-.5.5.2.5.5.5.5-.2.5-.5" clip-path="url(#aN)" fill="#fff"/><defs><path id="aO" d="M60.1 179.3c0 67.6 54.8 122.5 122.5 122.5 67.6 0 122.5-54.8 122.5-122.5 0-67.6-54.8-122.5-122.5-122.5-67.6 0-122.5 54.9-122.5 122.5"/></defs><clipPath id="aP"><use xlink:href="#aO" overflow="visible"/></clipPath><path d="M170.4 263.5c0-.3-.2-.5-.5-.5s-.5.2-.5.5.2.5.5.5.5-.2.5-.5" clip-path="url(#aP)" fill="#fff"/><defs><path id="aQ" d="M60.1 179.3c0 67.6 54.8 122.5 122.5 122.5 67.6 0 122.5-54.8 122.5-122.5 0-67.6-54.8-122.5-122.5-122.5-67.6 0-122.5 54.9-122.5 122.5"/></defs><clipPath id="aR"><use xlink:href="#aQ" overflow="visible"/></clipPath><path d="M172.1 262.4c0-.3-.3-.6-.6-.6s-.6.3-.6.6.3.6.6.6c.4 0 .6-.3.6-.6" clip-path="url(#aR)" fill="#fff"/><defs><path id="aS" d="M60.1 179.3c0 67.6 54.8 122.5 122.5 122.5 67.6 0 122.5-54.8 122.5-122.5 0-67.6-54.8-122.5-122.5-122.5-67.6 0-122.5 54.9-122.5 122.5"/></defs><clipPath id="aT"><use xlink:href="#aS" overflow="visible"/></clipPath><path d="M174.3 261.2c0-.3-.2-.5-.5-.5s-.5.2-.5.5.2.5.5.5.5-.2.5-.5" clip-path="url(#aT)" fill="#fff"/><defs><path id="aU" d="M60.1 179.3c0 67.6 54.8 122.5 122.5 122.5 67.6 0 122.5-54.8 122.5-122.5 0-67.6-54.8-122.5-122.5-122.5-67.6 0-122.5 54.9-122.5 122.5"/></defs><clipPath id="aV"><use xlink:href="#aU" overflow="visible"/></clipPath><path d="M176.6 260.2c0-.3-.2-.5-.5-.5s-.5.2-.5.5.2.5.5.5.5-.2.5-.5" clip-path="url(#aV)" fill="#fff"/><defs><path id="aW" d="M60.1 179.3c0 67.6 54.8 122.5 122.5 122.5 67.6 0 122.5-54.8 122.5-122.5 0-67.6-54.8-122.5-122.5-122.5-67.6 0-122.5 54.9-122.5 122.5"/></defs><clipPath id="aX"><use xlink:href="#aW" overflow="visible"/></clipPath><path d="M180.2 258.6c0-.3-.2-.5-.5-.5s-.5.2-.5.5.2.5.5.5.5-.2.5-.5" clip-path="url(#aX)" fill="#fff"/><defs><path id="aY" d="M60.1 179.3c0 67.6 54.8 122.5 122.5 122.5 67.6 0 122.5-54.8 122.5-122.5 0-67.6-54.8-122.5-122.5-122.5-67.6 0-122.5 54.9-122.5 122.5"/></defs><clipPath id="aZ"><use xlink:href="#aY" overflow="visible"/></clipPath><path d="M181.9 258.1c0-.3.3-.6.6-.6s.6.3.6.6-.3.6-.6.6c-.3-.1-.6-.3-.6-.6" clip-path="url(#aZ)" fill="#fff"/><defs><path id="ba" d="M60.1 179.3c0 67.6 54.8 122.5 122.5 122.5 67.6 0 122.5-54.8 122.5-122.5 0-67.6-54.8-122.5-122.5-122.5-67.6 0-122.5 54.9-122.5 122.5"/></defs><clipPath id="bb"><use xlink:href="#ba" overflow="visible"/></clipPath><path d="M162.7 270.5c0-.2.2-.4.4-.4s.4.2.4.4-.2.4-.4.4c-.2.1-.4-.1-.4-.4" clip-path="url(#bb)" fill="#fff"/><defs><path id="bc" d="M60.1 179.3c0 67.6 54.8 122.5 122.5 122.5 67.6 0 122.5-54.8 122.5-122.5 0-67.6-54.8-122.5-122.5-122.5-67.6 0-122.5 54.9-122.5 122.5"/></defs><clipPath id="bd"><use xlink:href="#bc" overflow="visible"/></clipPath><path d="M167 269.3c0-.2.2-.4.4-.4s.4.2.4.4-.2.4-.4.4c-.2.1-.4-.1-.4-.4" clip-path="url(#bd)" fill="#fff"/><defs><path id="be" d="M60.1 179.3c0 67.6 54.8 122.5 122.5 122.5 67.6 0 122.5-54.8 122.5-122.5 0-67.6-54.8-122.5-122.5-122.5-67.6 0-122.5 54.9-122.5 122.5"/></defs><clipPath id="bf"><use xlink:href="#be" overflow="visible"/></clipPath><path d="M168.6 267.8c0-.2.2-.4.4-.4s.4.2.4.4-.2.4-.4.4-.4-.1-.4-.4" clip-path="url(#bf)" fill="#fff"/><defs><path id="bg" d="M60.1 179.3c0 67.6 54.8 122.5 122.5 122.5 67.6 0 122.5-54.8 122.5-122.5 0-67.6-54.8-122.5-122.5-122.5-67.6 0-122.5 54.9-122.5 122.5"/></defs><clipPath id="bh"><use xlink:href="#bg" overflow="visible"/></clipPath><path d="M169 266.2c0-.2.2-.4.4-.4s.4.2.4.4-.2.4-.4.4-.4-.1-.4-.4" clip-path="url(#bh)" fill="#fff"/><defs><path id="bi" d="M60.1 179.3c0 67.6 54.8 122.5 122.5 122.5 67.6 0 122.5-54.8 122.5-122.5 0-67.6-54.8-122.5-122.5-122.5-67.6 0-122.5 54.9-122.5 122.5"/></defs><clipPath id="bj"><use xlink:href="#bi" overflow="visible"/></clipPath><path d="M170.5 264.8c0-.2.2-.4.4-.4s.4.2.4.4-.2.4-.4.4-.4-.1-.4-.4" clip-path="url(#bj)" fill="#fff"/><defs><path id="bk" d="M60.1 179.3c0 67.6 54.8 122.5 122.5 122.5 67.6 0 122.5-54.8 122.5-122.5 0-67.6-54.8-122.5-122.5-122.5-67.6 0-122.5 54.9-122.5 122.5"/></defs><clipPath id="bl"><use xlink:href="#bk" overflow="visible"/></clipPath><path d="M172.2 264.1c0-.2.2-.4.4-.4s.4.2.4.4-.2.4-.4.4-.4-.1-.4-.4" clip-path="url(#bl)" fill="#fff"/><defs><path id="bm" d="M60.1 179.3c0 67.6 54.8 122.5 122.5 122.5 67.6 0 122.5-54.8 122.5-122.5 0-67.6-54.8-122.5-122.5-122.5-67.6 0-122.5 54.9-122.5 122.5"/></defs><clipPath id="bn"><use xlink:href="#bm" overflow="visible"/></clipPath><path d="M173.9 262.6c0-.2.2-.4.4-.4s.4.2.4.4-.2.4-.4.4-.4-.2-.4-.4" clip-path="url(#bn)" fill="#fff"/><defs><path id="bo" d="M60.1 179.3c0 67.6 54.8 122.5 122.5 122.5 67.6 0 122.5-54.8 122.5-122.5 0-67.6-54.8-122.5-122.5-122.5-67.6 0-122.5 54.9-122.5 122.5"/></defs><clipPath id="bp"><use xlink:href="#bo" overflow="visible"/></clipPath><path d="M175.9 262.8c0-.2.2-.4.4-.4s.4.2.4.4-.2.4-.4.4-.4-.2-.4-.4" clip-path="url(#bp)" fill="#fff"/><defs><path id="bq" d="M60.1 179.3c0 67.6 54.8 122.5 122.5 122.5 67.6 0 122.5-54.8 122.5-122.5 0-67.6-54.8-122.5-122.5-122.5-67.6 0-122.5 54.9-122.5 122.5"/></defs><clipPath id="br"><use xlink:href="#bq" overflow="visible"/></clipPath><path d="M177.6 261.1c0-.2.2-.4.4-.4s.4.2.4.4-.2.4-.4.4-.4-.2-.4-.4" clip-path="url(#br)" fill="#fff"/><defs><path id="bs" d="M60.1 179.3c0 67.6 54.8 122.5 122.5 122.5 67.6 0 122.5-54.8 122.5-122.5 0-67.6-54.8-122.5-122.5-122.5-67.6 0-122.5 54.9-122.5 122.5"/></defs><clipPath id="bt"><use xlink:href="#bs" overflow="visible"/></clipPath><path d="M177.8 259.4c0-.2.2-.4.4-.4s.4.2.4.4-.2.4-.4.4-.4-.2-.4-.4" clip-path="url(#bt)" fill="#fff"/><defs><path id="bu" d="M60.1 179.3c0 67.6 54.8 122.5 122.5 122.5 67.6 0 122.5-54.8 122.5-122.5 0-67.6-54.8-122.5-122.5-122.5-67.6 0-122.5 54.9-122.5 122.5"/></defs><clipPath id="bv"><use xlink:href="#bu" overflow="visible"/></clipPath><path d="M180.1 260.3c0-.2.2-.4.4-.4s.4.2.4.4-.2.4-.4.4c-.3 0-.4-.2-.4-.4" clip-path="url(#bv)" fill="#fff"/><defs><path id="bw" d="M60.1 179.3c0 67.6 54.8 122.5 122.5 122.5 67.6 0 122.5-54.8 122.5-122.5 0-67.6-54.8-122.5-122.5-122.5-67.6 0-122.5 54.9-122.5 122.5"/></defs><clipPath id="bx"><use xlink:href="#bw" overflow="visible"/></clipPath><path d="M183.2 259c0-.2.2-.4.4-.4s.4.2.4.4-.2.4-.4.4-.4-.2-.4-.4" clip-path="url(#bx)" fill="#fff"/><defs><path id="by" d="M60.1 179.3c0 67.6 54.8 122.5 122.5 122.5 67.6 0 122.5-54.8 122.5-122.5 0-67.6-54.8-122.5-122.5-122.5-67.6 0-122.5 54.9-122.5 122.5"/></defs><clipPath id="bz"><use xlink:href="#by" overflow="visible"/></clipPath><path d="M186.4 257.1c0-.2-.2-.4-.4-.4s-.4.2-.4.4.2.4.4.4.4-.2.4-.4" clip-path="url(#bz)" fill="#fff"/><defs><path id="bA" d="M60.1 179.3c0 67.6 54.8 122.5 122.5 122.5 67.6 0 122.5-54.8 122.5-122.5 0-67.6-54.8-122.5-122.5-122.5-67.6 0-122.5 54.9-122.5 122.5"/></defs><clipPath id="bB"><use xlink:href="#bA" overflow="visible"/></clipPath><path d="M187.5 257.7c0-.2.2-.4.4-.4s.4.2.4.4-.2.4-.4.4-.4-.2-.4-.4" clip-path="url(#bB)" fill="#fff"/><defs><path id="bC" d="M60.1 179.3c0 67.6 54.8 122.5 122.5 122.5 67.6 0 122.5-54.8 122.5-122.5 0-67.6-54.8-122.5-122.5-122.5-67.6 0-122.5 54.9-122.5 122.5"/></defs><clipPath id="bD"><use xlink:href="#bC" overflow="visible"/></clipPath><path d="M192 257.2c0-.2.2-.4.4-.4s.4.2.4.4-.2.4-.4.4-.4-.2-.4-.4" clip-path="url(#bD)" fill="#fff"/><defs><path id="bE" d="M60.1 179.3c0 67.6 54.8 122.5 122.5 122.5 67.6 0 122.5-54.8 122.5-122.5 0-67.6-54.8-122.5-122.5-122.5-67.6 0-122.5 54.9-122.5 122.5"/></defs><clipPath id="bF"><use xlink:href="#bE" overflow="visible"/></clipPath><path d="M189.9 257c0-.2.2-.4.4-.4s.4.2.4.4-.2.4-.4.4-.4-.2-.4-.4" clip-path="url(#bF)" fill="#fff"/><defs><path id="bG" d="M60.1 179.3c0 67.6 54.8 122.5 122.5 122.5 67.6 0 122.5-54.8 122.5-122.5 0-67.6-54.8-122.5-122.5-122.5-67.6 0-122.5 54.9-122.5 122.5"/></defs><clipPath id="bH"><use xlink:href="#bG" overflow="visible"/></clipPath><path d="M194.4 257.2c0-.2.2-.4.4-.4s.4.2.4.4-.2.4-.4.4-.4-.2-.4-.4" clip-path="url(#bH)" fill="#fff"/><defs><path id="bI" d="M60.1 179.3c0 67.6 54.8 122.5 122.5 122.5 67.6 0 122.5-54.8 122.5-122.5 0-67.6-54.8-122.5-122.5-122.5-67.6 0-122.5 54.9-122.5 122.5"/></defs><clipPath id="bJ"><use xlink:href="#bI" overflow="visible"/></clipPath><path d="M197.5 257.2c0-.2.2-.4.4-.4s.4.2.4.4-.2.4-.4.4-.4-.2-.4-.4" clip-path="url(#bJ)" fill="#fff"/><defs><path id="bK" d="M60.1 179.3c0 67.6 54.8 122.5 122.5 122.5 67.6 0 122.5-54.8 122.5-122.5 0-67.6-54.8-122.5-122.5-122.5-67.6 0-122.5 54.9-122.5 122.5"/></defs><clipPath id="bL"><use xlink:href="#bK" overflow="visible"/></clipPath><path d="M201.4 257.6c0-.2.2-.4.4-.4s.4.2.4.4-.2.4-.4.4-.4-.2-.4-.4" clip-path="url(#bL)" fill="#fff"/><defs><path id="bM" d="M60.1 179.3c0 67.6 54.8 122.5 122.5 122.5 67.6 0 122.5-54.8 122.5-122.5 0-67.6-54.8-122.5-122.5-122.5-67.6 0-122.5 54.9-122.5 122.5"/></defs><clipPath id="bN"><use xlink:href="#bM" overflow="visible"/></clipPath><path d="M204.2 258.5c0-.2.2-.4.4-.4s.4.2.4.4-.2.4-.4.4-.4-.2-.4-.4" clip-path="url(#bN)" fill="#fff"/><defs><path id="bO" d="M60.1 179.3c0 67.6 54.8 122.5 122.5 122.5 67.6 0 122.5-54.8 122.5-122.5 0-67.6-54.8-122.5-122.5-122.5-67.6 0-122.5 54.9-122.5 122.5"/></defs><clipPath id="bP"><use xlink:href="#bO" overflow="visible"/></clipPath><path d="M165.6 271.7c0-.2.2-.4.4-.4s.4.2.4.4-.2.4-.4.4c-.2.1-.4-.1-.4-.4" clip-path="url(#bP)" fill="#fff"/><defs><path id="bQ" d="M60.1 179.3c0 67.6 54.8 122.5 122.5 122.5 67.6 0 122.5-54.8 122.5-122.5 0-67.6-54.8-122.5-122.5-122.5-67.6 0-122.5 54.9-122.5 122.5"/></defs><clipPath id="bR"><use xlink:href="#bQ" overflow="visible"/></clipPath><path d="M166 274.5c0-.2.2-.4.4-.4s.4.2.4.4-.2.4-.4.4c-.2.1-.4-.1-.4-.4" clip-path="url(#bR)" fill="#fff"/><defs><path id="bS" d="M60.1 179.3c0 67.6 54.8 122.5 122.5 122.5 67.6 0 122.5-54.8 122.5-122.5 0-67.6-54.8-122.5-122.5-122.5-67.6 0-122.5 54.9-122.5 122.5"/></defs><clipPath id="bT"><use xlink:href="#bS" overflow="visible"/></clipPath><path d="M166.8 277.8c0-.2.2-.4.4-.4s.4.2.4.4-.2.4-.4.4-.4-.2-.4-.4" clip-path="url(#bT)" fill="#fff"/><defs><path id="bU" d="M60.1 179.3c0 67.6 54.8 122.5 122.5 122.5 67.6 0 122.5-54.8 122.5-122.5 0-67.6-54.8-122.5-122.5-122.5-67.6 0-122.5 54.9-122.5 122.5"/></defs><clipPath id="bV"><use xlink:href="#bU" overflow="visible"/></clipPath><path d="M164.6 272.7c0-.2.2-.4.4-.4s.4.2.4.4-.2.4-.4.4c-.2.1-.4-.1-.4-.4" clip-path="url(#bV)" fill="#fff"/><defs><path id="bW" d="M60.1 179.3c0 67.6 54.8 122.5 122.5 122.5 67.6 0 122.5-54.8 122.5-122.5 0-67.6-54.8-122.5-122.5-122.5-67.6 0-122.5 54.9-122.5 122.5"/></defs><clipPath id="bX"><use xlink:href="#bW" overflow="visible"/></clipPath><path d="M153.6 273.4c2.2-.3 7 3 7.8 4.4l1.1-.6c-2.3-1.9-4.4-4.6-8.9-3.8" clip-path="url(#bX)" fill="#fff"/><defs><path id="bY" d="M60.1 179.3c0 67.6 54.8 122.5 122.5 122.5 67.6 0 122.5-54.8 122.5-122.5 0-67.6-54.8-122.5-122.5-122.5-67.6 0-122.5 54.9-122.5 122.5"/></defs><clipPath id="bZ"><use xlink:href="#bY" overflow="visible"/></clipPath><path d="M153.5 279.9c-.9-.5-1.2-1.7-.7-2.6s1.7-1.2 2.6-.7c.9.5 1.2 1.7.7 2.6-.1-.8-.7-1.7-1-1.9-.5-.3-1.3-.3-1.8.3-.5.5-.3 1.7.2 2.3" clip-path="url(#bZ)" fill="#fff"/><defs><path id="ca" d="M60.1 179.3c0 67.6 54.8 122.5 122.5 122.5 67.6 0 122.5-54.8 122.5-122.5 0-67.6-54.8-122.5-122.5-122.5-67.6 0-122.5 54.9-122.5 122.5"/></defs><clipPath id="cb"><use xlink:href="#ca" overflow="visible"/></clipPath><path d="M214.8 273.1c0-.6.5-1.1 1-1.1.6 0 1 .5 1 1.1s-.5 1.1-1 1.1-1-.5-1-1.1" clip-path="url(#cb)" fill="#b64326"/><defs><path id="cc" d="M60.1 179.3c0 67.6 54.8 122.5 122.5 122.5 67.6 0 122.5-54.8 122.5-122.5 0-67.6-54.8-122.5-122.5-122.5-67.6 0-122.5 54.9-122.5 122.5"/></defs><clipPath id="cd"><use xlink:href="#cc" overflow="visible"/></clipPath><path d="M153.5 279.2c0-.5.4-.9.9-.9s.9.4.9.9-.4.9-.9.9-.9-.4-.9-.9" clip-path="url(#cd)" fill="#b64326"/><defs><path id="ce" d="M60.1 179.3c0 67.6 54.8 122.5 122.5 122.5 67.6 0 122.5-54.8 122.5-122.5 0-67.6-54.8-122.5-122.5-122.5-67.6 0-122.5 54.9-122.5 122.5"/></defs><clipPath id="cf"><use xlink:href="#ce" overflow="visible"/></clipPath><path d="M174.4 234.5c-1.7-.7-3.4.2-4.5-1.3-.4-.5.6-1.5 1.2-1.4 3.9.2 5.5 3.6 7.7 5.3-2.5-.3-2.5-1.8-4.4-2.6" clip-path="url(#cf)" fill="#fff"/><defs><path id="cg" d="M295.4 201.9c-10.5 2.8-27.1 6.8-27.1 6.8-22.9 6.9-47.3 10-72.6 11.5-5.5.3-14.1 1.1-16-5.7-1.5-.4-3.1 0-3.4 1.5 1.1 7.3 4.6 13 3.8 20.6.8.8 1.9.8 3.1.8 5.5-2.4 8.3-4.4 13.8-5.4 5-.9 13.1-.1 20.7 1.4 14.6.5 27.9-4 45.5-8.1 11.5-2.7 26.5-7.4 36.8-10.8 1.4-4.8 2.6-9.7 3.4-14.7-2.6.6-5.2 1.3-8 2.1"/></defs><clipPath id="ch"><use xlink:href="#cg" overflow="visible"/></clipPath><linearGradient id="ci" gradientUnits="userSpaceOnUse" x1="-290.825" y1="312.662" x2="-288.886" y2="312.662" gradientTransform="rotate(87 438.397 6956.524) scale(21.7558)"><stop offset="0"/><stop offset="1" stop-color="#16204b"/></linearGradient><path clip-path="url(#ch)" fill="url(#ci)" d="M303 193.1l2.3 44.1-128.7 6.8-2.3-44.1z"/><defs><path id="cj" d="M294.2 168.8v12.4H282v2.5c-2.3.6-21.6 1.6-23.6 2 0 2.2-.2 4.7-.2 4.7h-8.6V182h-5.7v8.4c-2.3 0-4.8.2-5.9.2v5.1c-1.7.6-6.4 2.6-9.9 3.8H198v7.4c-4.2 1.9-13.1 5.1-17.3 6.3 1.4 2.8 2.4 4.3 7.3 4.9 4.9 1 7.8.4 11.8.4 4.7 0 11.5-1 18.9-1.8 6.8-.8 10.7-1.3 17.4-2.4 13-2.2 20.3-4 33.1-7.3 9.4-2.4 14.6-4.3 23.9-6.9 4.1-1.2 7.4-2.1 10.6-2.9.7-5.1 1.2-10.4 1.2-15.7h-7.4v-12.4h-3.3v-.3z"/></defs><clipPath id="ck"><use xlink:href="#cj" overflow="visible"/></clipPath><linearGradient id="cl" gradientUnits="userSpaceOnUse" x1="-354.973" y1="321.706" x2="-353.034" y2="321.706" gradientTransform="rotate(-109 -5120.027 642.987) scale(18.2151)"><stop offset="0"/><stop offset=".644" stop-color="#16204b"/><stop offset="1" stop-color="#16204b"/></linearGradient><path clip-path="url(#ck)" fill="url(#cl)" d="M193.9 257.2l-28.6-83.1 126.5-43.5 28.6 83z"/><defs><path id="cm" d="M60.1 179.3c0 67.6 54.8 122.5 122.5 122.5 67.6 0 122.5-54.8 122.5-122.5 0-67.6-54.8-122.5-122.5-122.5-67.6 0-122.5 54.9-122.5 122.5"/></defs><clipPath id="cn"><use xlink:href="#cm" overflow="visible"/></clipPath><path d="M195 237.4c4-.2 6.9 3 10.3.8 1.2-.7-.1-3.5-1.4-3.9-8.2-2.5-14.2 3.2-20.1 5.3 5.5 1 6.7-2 11.2-2.2" clip-path="url(#cn)" fill="#fff"/><defs><path id="co" d="M60.1 179.3c0 67.6 54.8 122.5 122.5 122.5 67.6 0 122.5-54.8 122.5-122.5 0-67.6-54.8-122.5-122.5-122.5-67.6 0-122.5 54.9-122.5 122.5"/></defs><clipPath id="cp"><use xlink:href="#co" overflow="visible"/></clipPath><path clip-path="url(#cp)" fill="#969a9c" d="M225.5 177.3l2.3.7-.1 3.6 2.5 1.2.1 3.7 2.4 1.2-.1 2.3-189.8 36.9-9.3-21.6z"/><defs><path id="cq" d="M60.1 179.3c0 67.6 54.8 122.5 122.5 122.5 67.6 0 122.5-54.8 122.5-122.5 0-67.6-54.8-122.5-122.5-122.5-67.6 0-122.5 54.9-122.5 122.5"/></defs><clipPath id="cr"><use xlink:href="#cq" overflow="visible"/></clipPath><path clip-path="url(#cr)" fill="#393d42" d="M227.8 177.9L43.4 207.2l1.2 6 183.2-31.6z"/><defs><path id="cs" d="M60.1 179.3c0 67.6 54.8 122.5 122.5 122.5 67.6 0 122.5-54.8 122.5-122.5 0-67.6-54.8-122.5-122.5-122.5-67.6 0-122.5 54.9-122.5 122.5"/></defs><clipPath id="ct"><use xlink:href="#cs" overflow="visible"/></clipPath><path clip-path="url(#ct)" fill="#393d42" d="M230.3 182.8L47.7 215.1l1.2 6.1 181.4-34.7z"/><defs><path id="cu" d="M60.1 179.3c0 67.6 54.8 122.5 122.5 122.5 67.6 0 122.5-54.8 122.5-122.5 0-67.6-54.8-122.5-122.5-122.5-67.6 0-122.5 54.9-122.5 122.5"/></defs><clipPath id="cv"><use xlink:href="#cu" overflow="visible"/></clipPath><path clip-path="url(#cv)" fill="#393d42" d="M232.7 187.7l-184.1 35 1.2 6.1 182.9-37.5z"/><defs><path id="cw" d="M81.9 145.4s-2-1.1-4.9-1.3c-3-.2-7 2.7-7 2.7s3.4-.8 6.4.4c3 1.1 3 2.7 3 2.7s-2.2.1-4.1 1.6c-2 1.6-3.3 4.3-3.3 4.3s1.4-1.2 3.6-1.7 3.7-.2 3.7-.2-1.5.8-3 2.9c-1.5 2.1-1.9 4.5-1.9 4.5s1.6-1.3 3.4-1.8c2.6-.8 3.4-.3 3.4-.3l-2.5 6.2 4.3-1.7s-.6 4.5.1 7.1c.3 1.2 2.2 1.8 2.2 1.8l.5 26.4 2.6-.2-.5-26.3s1.7-1.2 2.4-2.2c1.5-2.2.3-6.4.3-6.4l3.6.9-2.6-5.2s.9-.9 3.6-.8c2 0 3.8 1 3.8 1s-.6-2.9-1.7-4.4c-1-1.4-3.5-2.9-3.5-2.9s1.5-.3 3.4-.2c2.6.2 4.7 2 4.7 2s-.2-3.8-2.7-5.6c-2.6-1.8-7.2-1-7.2-1s.6-1.5 2.3-2.9c1.6-1.2 4-1.8 4-1.8s-2.5-1.3-6-.5c-2.4.6-3.2 2.4-3.2 2.4s-.1-1.3.4-2.9c.5-1.6 1.8-2.9 1.8-2.9s-3 .6-4.1 2.3-1.9 3.7-1.9 3.7l-3-6.2-.4 6.5z"/></defs><clipPath id="cx"><use xlink:href="#cw" overflow="visible"/></clipPath><linearGradient id="cy" gradientUnits="userSpaceOnUse" x1="-300.44" y1="316.118" x2="-298.501" y2="316.118" gradientTransform="rotate(90 216.93 9682.462) scale(31.0439)"><stop offset="0" stop-color="#c0d72f"/><stop offset=".441" stop-color="#03713a"/><stop offset="1" stop-color="#03713a"/></linearGradient><path clip-path="url(#cx)" fill="url(#cy)" d="M69.9 138.7h31.9v60.2H69.9z"/><defs><path id="cz" d="M60.1 179.3c0 67.6 54.8 122.5 122.5 122.5 67.6 0 122.5-54.8 122.5-122.5 0-67.6-54.8-122.5-122.5-122.5-67.6 0-122.5 54.9-122.5 122.5"/></defs><clipPath id="cA"><use xlink:href="#cz" overflow="visible"/></clipPath><path d="M88.3 198.7l-.5-26.3s1.7-1.2 2.4-2.2c1.5-2.2.3-6.4.3-6.4l3.6.9-2.6-5.2s.9-.9 3.6-.8c2 0 3.8 1 3.8 1s-.6-2.9-1.7-4.4c-1-1.4-3.5-2.9-3.5-2.9s1.5-.3 3.4-.2c2.6.2 4.7 2 4.7 2s-.2-3.8-2.7-5.6c-2.6-1.8-7.2-1-7.2-1s.6-1.5 2.3-2.9c1.6-1.2 4-1.8 4-1.8s-2.5-1.3-6-.5c-2.4.6-3.2 2.4-3.2 2.4s-.1-1.3.4-2.9c.5-1.6 1.8-2.9 1.8-2.9s-3 .6-4.1 2.3-1.9 3.7-1.9 3.7l-3-6.2-.4 6.7s-2-1.1-4.9-1.3c-3-.2-7 2.7-7 2.7s3.4-.8 6.4.4c3 1.1 3 2.7 3 2.7s-2.2.1-4.1 1.6c-2 1.6-3.3 4.3-3.3 4.3s1.4-1.2 3.6-1.7 3.7-.2 3.7-.2-1.5.8-3 2.9c-1.5 2.1-1.9 4.5-1.9 4.5s1.6-1.3 3.4-1.8c2.6-.8 3.4-.3 3.4-.3l-2.5 6.2 4.3-1.7s-.6 4.5.1 7.1c.3 1.2 2.2 1.8 2.2 1.8l.5 26.4 2.6-.4z" clip-path="url(#cA)" fill="none" stroke="#2a9646" stroke-width=".309" stroke-miterlimit="3.864"/><defs><path id="cB" d="M112.9 150.4s-1.5-1.2-4-1.8-6.3 1.2-6.3 1.2 3-.2 5.3 1.2 2.1 2.7 2.1 2.7-1.8-.3-3.7.7c-1.9 1-3.4 3.1-3.4 3.1s1.4-.8 3.3-.9c2-.1 3.2.3 3.2.3s-1.4.4-2.9 2c-1.6 1.6-2.2 3.5-2.2 3.5s1.5-.9 3.1-1c2.3-.2 2.9.2 2.9.2l-3 4.8 3.9-.8s-1.1 3.7-1 6c.1 1 1.6 1.9 1.6 1.9l-3.2 21.8 3-.9 2.3-20.7s1.6-.7 2.4-1.5c1.6-1.6 1.2-5.4 1.2-5.4l2.9 1.3-1.4-4.8s.9-.6 3.1-.2c1.7.3 3 1.4 3 1.4s-.1-2.5-.7-3.9c-.7-1.3-2.5-3-2.5-3s1.3-.1 2.9.3c2.2.5 3.6 2.4 3.6 2.4s.4-3.2-1.5-5.1c-1.9-1.9-5.9-1.9-5.9-1.9s.7-1.2 2.4-2.1c1.5-.8 3.6-.9 3.6-.9s-1.9-1.5-5-1.3c-2.1.2-3.1 1.5-3.1 1.5s.1-1.1.7-2.3c.7-1.3 2-2.2 2-2.2s-2.6.1-3.8 1.4c-1.2 1.3-2.1 2.8-2.1 2.8l-1.6-5.6-1.2 5.8z"/></defs><clipPath id="cC"><use xlink:href="#cB" overflow="visible"/></clipPath><linearGradient id="cD" gradientUnits="userSpaceOnUse" x1="-296.904" y1="314.683" x2="-294.963" y2="314.683" gradientTransform="rotate(90 218.191 8136.135) scale(26.1807)"><stop offset="0" stop-color="#c0d72f"/><stop offset=".441" stop-color="#03713a"/><stop offset="1" stop-color="#03713a"/></linearGradient><path clip-path="url(#cC)" fill="url(#cD)" d="M102.6 144.8h26.2v50.8h-26.2z"/><defs><path id="cE" d="M60.1 179.3c0 67.6 54.8 122.5 122.5 122.5 67.6 0 122.5-54.8 122.5-122.5 0-67.6-54.8-122.5-122.5-122.5-67.6 0-122.5 54.9-122.5 122.5"/></defs><clipPath id="cF"><use xlink:href="#cE" overflow="visible"/></clipPath><path d="M111.6 194.7l2.3-20.7s1.6-.7 2.3-1.5c1.6-1.6 1.2-5.4 1.2-5.4l2.9 1.3-1.4-4.8s.9-.6 3.1-.2c1.7.3 3 1.4 3 1.4s-.1-2.5-.7-3.9c-.7-1.3-2.5-3-2.5-3s1.3-.1 2.9.3c2.2.5 3.6 2.4 3.6 2.4s.4-3.2-1.5-5.1c-1.9-1.9-5.9-1.9-5.9-1.9s.7-1.2 2.4-2.1c1.5-.8 3.6-.9 3.6-.9s-1.9-1.5-5-1.3c-2.1.2-3.1 1.5-3.1 1.5s.1-1.1.7-2.3c.7-1.3 2-2.2 2-2.2s-2.6.1-3.8 1.4c-1.2 1.3-2.1 2.8-2.1 2.8l-1.6-5.6-1.3 5.6s-1.5-1.2-4-1.8-6.3 1.2-6.3 1.2 3-.2 5.3 1.2 2.1 2.7 2.1 2.7-1.8-.3-3.7.7c-1.9 1-3.4 3.2-3.4 3.2s1.4-.8 3.3-.9c2-.1 3.2.3 3.2.3s-1.4.4-2.9 2c-1.6 1.6-2.2 3.5-2.2 3.5s1.5-.9 3.1-1c2.3-.3 2.9.2 2.9.2l-3 4.8 3.9-.8s-1.1 3.7-1 6c.1 1 1.6 1.9 1.6 1.9l-3.2 21.8 3.2-.8z" clip-path="url(#cF)" fill="none" stroke="#2a9646" stroke-width=".265" stroke-miterlimit="3.864"/><defs><path id="cG" d="M60.1 179.3c0 67.6 54.8 122.5 122.5 122.5 67.6 0 122.5-54.8 122.5-122.5 0-67.6-54.8-122.5-122.5-122.5-67.6 0-122.5 54.9-122.5 122.5"/></defs><clipPath id="cH"><use xlink:href="#cG" overflow="visible"/></clipPath><path clip-path="url(#cH)" fill="#b64326" d="M85.2 172.6l.5 26.3 2.6-.2-.5-26.3z"/><defs><path id="cI" d="M60.1 179.3c0 67.6 54.8 122.5 122.5 122.5 67.6 0 122.5-54.8 122.5-122.5 0-67.6-54.8-122.5-122.5-122.5-67.6 0-122.5 54.9-122.5 122.5"/></defs><clipPath id="cJ"><use xlink:href="#cI" overflow="visible"/></clipPath><path clip-path="url(#cJ)" fill="none" stroke="#b64326" stroke-width=".309" stroke-miterlimit="3.864" d="M85.2 172.6l.5 26.3 2.6-.2-.5-26.3z"/><defs><path id="cK" d="M60.1 179.3c0 67.6 54.8 122.5 122.5 122.5 67.6 0 122.5-54.8 122.5-122.5 0-67.6-54.8-122.5-122.5-122.5-67.6 0-122.5 54.9-122.5 122.5"/></defs><clipPath id="cL"><use xlink:href="#cK" overflow="visible"/></clipPath><path clip-path="url(#cL)" fill="#b64326" d="M111.7 173.8l-3.2 21.8 3.1-.9 2.3-20.7z"/><defs><path id="cM" d="M60.1 179.3c0 67.6 54.8 122.5 122.5 122.5 67.6 0 122.5-54.8 122.5-122.5 0-67.6-54.8-122.5-122.5-122.5-67.6 0-122.5 54.9-122.5 122.5"/></defs><clipPath id="cN"><use xlink:href="#cM" overflow="visible"/></clipPath><path clip-path="url(#cN)" fill="none" stroke="#b64326" stroke-width=".265" stroke-miterlimit="3.864" d="M111.7 173.8l-3.2 21.8 3.1-.9 2.3-20.7z"/><defs><path id="cO" d="M60.1 179.3c0 67.6 54.8 122.5 122.5 122.5 67.6 0 122.5-54.8 122.5-122.5 0-67.6-54.8-122.5-122.5-122.5-67.6 0-122.5 54.9-122.5 122.5"/></defs><clipPath id="cP"><use xlink:href="#cO" overflow="visible"/></clipPath><path d="M153.1 258.5l-1.8 6.1c-9.4.8-33.4 1.1-42.7.5-.7 0-2.7-.6-3.8-1.1-1.1-.5-.9-1-.6-1.9.3-1 .5-1.5.8-2l1.5-.4c9.2-.7 39.4-1.3 46.6-1.2" clip-path="url(#cP)" fill="#16204b"/><defs><path id="cQ" d="M60.1 179.3c0 67.6 54.8 122.5 122.5 122.5 67.6 0 122.5-54.8 122.5-122.5 0-67.6-54.8-122.5-122.5-122.5-67.6 0-122.5 54.9-122.5 122.5"/></defs><clipPath id="cR"><use xlink:href="#cQ" overflow="visible"/></clipPath><path d="M125.4 259c-7.8.2-15.1.5-18.9.7l-.9 1.7 4 .4 1.4-.4 1.8-1.3 2.4.4c2.7 0 16.8-.3 20.8-.4 4.1-.2 12.3-.7 17.2-1.4-1.9 0-5.5 0-9.9.1-2.2-.7-6.5-1.7-8-1.7l-.2-.4h-7.6l-.5.3h-1c-.2.5-.6 1.5-.6 2" clip-path="url(#cR)" fill="#16204b"/><defs><path id="cS" d="M60.1 179.3c0 67.6 54.8 122.5 122.5 122.5 67.6 0 122.5-54.8 122.5-122.5 0-67.6-54.8-122.5-122.5-122.5-67.6 0-122.5 54.9-122.5 122.5"/></defs><clipPath id="cT"><use xlink:href="#cS" overflow="visible"/></clipPath><path d="M125.4 259c-7.8.2-15.1.5-18.9.7l-.9 1.7 4 .4 1.4-.4 1.8-1.3 2.4.4c2.7 0 16.8-.3 20.8-.4 4.1-.2 12.3-.7 17.2-1.4-1.9 0-5.5 0-9.9.1-2.2-.7-6.5-1.7-8-1.7l-.2-.4h-7.6l-.5.3h-1c-.2.5-.6 1.5-.6 2z" clip-path="url(#cT)" fill="none" stroke="#16204b" stroke-width=".085"/><defs><path id="cU" d="M60.1 179.3c0 67.6 54.8 122.5 122.5 122.5 67.6 0 122.5-54.8 122.5-122.5 0-67.6-54.8-122.5-122.5-122.5-67.6 0-122.5 54.9-122.5 122.5"/></defs><clipPath id="cV"><use xlink:href="#cU" overflow="visible"/></clipPath><path d="M115.1 260.4l-2.4-.4-1.8 1.3-1.4.4-4-.4.9-1.7-1.4.4c-.3.6-.7 1.8-.9 2.4-.1.4-.2.9.4 1.4.8.6 2.7.6 4.3 0 1.6-.6 4.3-2.1 6.3-3.4" clip-path="url(#cV)" fill="#16204b"/><defs><path id="cW" d="M60.1 179.3c0 67.6 54.8 122.5 122.5 122.5 67.6 0 122.5-54.8 122.5-122.5 0-67.6-54.8-122.5-122.5-122.5-67.6 0-122.5 54.9-122.5 122.5"/></defs><clipPath id="cX"><use xlink:href="#cW" overflow="visible"/></clipPath><path d="M115.1 260.4l-2.4-.4-1.8 1.3-1.4.4-4-.4.9-1.7-1.4.4c-.3.6-.7 1.8-.9 2.4-.1.4-.2.9.4 1.4.8.6 2.7.6 4.3 0 1.6-.6 4.3-2.1 6.3-3.4z" clip-path="url(#cX)" fill="none" stroke="#fff" stroke-width=".085"/><defs><path id="cY" d="M60.1 179.3c0 67.6 54.8 122.5 122.5 122.5 67.6 0 122.5-54.8 122.5-122.5 0-67.6-54.8-122.5-122.5-122.5-67.6 0-122.5 54.9-122.5 122.5"/></defs><clipPath id="cZ"><use xlink:href="#cY" overflow="visible"/></clipPath><path clip-path="url(#cZ)" fill="#fff" d="M136.2 258.8l-.8-.7h-2.7l.1.7z"/><defs><path id="da" d="M60.1 179.3c0 67.6 54.8 122.5 122.5 122.5 67.6 0 122.5-54.8 122.5-122.5 0-67.6-54.8-122.5-122.5-122.5-67.6 0-122.5 54.9-122.5 122.5"/></defs><clipPath id="db"><use xlink:href="#da" overflow="visible"/></clipPath><path clip-path="url(#db)" fill="#fff" d="M128.5 258.9l-.2-.8h3.3l.2.7z"/><defs><path id="dc" d="M60.1 179.3c0 67.6 54.8 122.5 122.5 122.5 67.6 0 122.5-54.8 122.5-122.5 0-67.6-54.8-122.5-122.5-122.5-67.6 0-122.5 54.9-122.5 122.5"/></defs><clipPath id="dd"><use xlink:href="#dc" overflow="visible"/></clipPath><path d="M143.6 258.7c-4.2.5-14.6.7-17 .7l-1.1-.4" clip-path="url(#dd)" fill="none" stroke="#fff" stroke-width=".085"/><defs><path id="de" d="M60.1 179.3c0 67.6 54.8 122.5 122.5 122.5 67.6 0 122.5-54.8 122.5-122.5 0-67.6-54.8-122.5-122.5-122.5-67.6 0-122.5 54.9-122.5 122.5"/></defs><clipPath id="df"><use xlink:href="#de" overflow="visible"/></clipPath><path d="M126.6 259.4c0-.6.4-1.9.5-2.2l-1.1-.2" clip-path="url(#df)" fill="none" stroke="#fff" stroke-width=".057"/><defs><path id="dg" d="M60.1 179.3c0 67.6 54.8 122.5 122.5 122.5 67.6 0 122.5-54.8 122.5-122.5 0-67.6-54.8-122.5-122.5-122.5-67.6 0-122.5 54.9-122.5 122.5"/></defs><clipPath id="dh"><use xlink:href="#dg" overflow="visible"/></clipPath><path d="M126.2 257.4c-.1.4-.4 1.2-.4 1.7l.5.2c0-.4.3-1.5.4-1.9h-.5z" clip-path="url(#dh)" fill="#fff"/><defs><path id="di" d="M60.1 179.3c0 67.6 54.8 122.5 122.5 122.5 67.6 0 122.5-54.8 122.5-122.5 0-67.6-54.8-122.5-122.5-122.5-67.6 0-122.5 54.9-122.5 122.5"/></defs><clipPath id="dj"><use xlink:href="#di" overflow="visible"/></clipPath><path clip-path="url(#dj)" fill="none" stroke="#fff" stroke-width=".085" d="M134.5 257H127"/><defs><path id="dk" d="M60.1 179.3c0 67.6 54.8 122.5 122.5 122.5 67.6 0 122.5-54.8 122.5-122.5 0-67.6-54.8-122.5-122.5-122.5-67.6 0-122.5 54.9-122.5 122.5"/></defs><clipPath id="dl"><use xlink:href="#dk" overflow="visible"/></clipPath><path d="M112.8 259.9c3.4 0 21.8-.3 27.4-.4" clip-path="url(#dl)" fill="none" stroke="#fff" stroke-width=".042"/><defs><path id="dm" d="M60.1 179.3c0 67.6 54.8 122.5 122.5 122.5 67.6 0 122.5-54.8 122.5-122.5 0-67.6-54.8-122.5-122.5-122.5-67.6 0-122.5 54.9-122.5 122.5"/></defs><clipPath id="dn"><use xlink:href="#dm" overflow="visible"/></clipPath><path d="M132.3 167l4.4 82.8-29 2.9c3.2-19.7 13.9-66.5 24.6-85.7" clip-path="url(#dn)" fill="#ef3e33"/><defs><path id="do" d="M60.1 179.3c0 67.6 54.8 122.5 122.5 122.5 67.6 0 122.5-54.8 122.5-122.5 0-67.6-54.8-122.5-122.5-122.5-67.6 0-122.5 54.9-122.5 122.5"/></defs><clipPath id="dp"><use xlink:href="#do" overflow="visible"/></clipPath><path d="M132.3 167l4.4 82.8-29 2.9c3.2-19.7 13.9-66.5 24.6-85.7z" clip-path="url(#dp)" fill="none" stroke="#ef3e33" stroke-width=".238" stroke-linejoin="round"/><defs><path id="dq" d="M60.1 179.3c0 67.6 54.8 122.5 122.5 122.5 67.6 0 122.5-54.8 122.5-122.5 0-67.6-54.8-122.5-122.5-122.5-67.6 0-122.5 54.9-122.5 122.5"/></defs><clipPath id="dr"><use xlink:href="#dq" overflow="visible"/></clipPath><path d="M111.7 253.7c0-.2.2-.4.4-.4s.4.2.4.4-.2.4-.4.4-.4-.2-.4-.4" clip-path="url(#dr)"/><defs><path id="ds" d="M60.1 179.3c0 67.6 54.8 122.5 122.5 122.5 67.6 0 122.5-54.8 122.5-122.5 0-67.6-54.8-122.5-122.5-122.5-67.6 0-122.5 54.9-122.5 122.5"/></defs><clipPath id="dt"><use xlink:href="#ds" overflow="visible"/></clipPath><path d="M110.1 253.9c0-.2.2-.4.4-.4s.4.2.4.4-.2.4-.4.4-.4-.2-.4-.4" clip-path="url(#dt)"/><defs><path id="du" d="M60.1 179.3c0 67.6 54.8 122.5 122.5 122.5 67.6 0 122.5-54.8 122.5-122.5 0-67.6-54.8-122.5-122.5-122.5-67.6 0-122.5 54.9-122.5 122.5"/></defs><clipPath id="dv"><use xlink:href="#du" overflow="visible"/></clipPath><path clip-path="url(#dv)" fill="#fff" d="M112.4 253.6l4.5 5.6-.5-.1-4.5-5.2z"/><defs><path id="dw" d="M60.1 179.3c0 67.6 54.8 122.5 122.5 122.5 67.6 0 122.5-54.8 122.5-122.5 0-67.6-54.8-122.5-122.5-122.5-67.6 0-122.5 54.9-122.5 122.5"/></defs><clipPath id="dx"><use xlink:href="#dw" overflow="visible"/></clipPath><path clip-path="url(#dx)" fill="none" stroke="#fff" stroke-width=".123" d="M112.4 253.6l4.5 5.6-.5-.1-4.5-5.2z"/><defs><path id="dy" d="M60.1 179.3c0 67.6 54.8 122.5 122.5 122.5 67.6 0 122.5-54.8 122.5-122.5 0-67.6-54.8-122.5-122.5-122.5-67.6 0-122.5 54.9-122.5 122.5"/></defs><clipPath id="dz"><use xlink:href="#dy" overflow="visible"/></clipPath><path clip-path="url(#dz)" fill="#fff" d="M110.7 253.7l4.8 5.5h-.4l-4.9-5.2z"/><defs><path id="dA" d="M60.1 179.3c0 67.6 54.8 122.5 122.5 122.5 67.6 0 122.5-54.8 122.5-122.5 0-67.6-54.8-122.5-122.5-122.5-67.6 0-122.5 54.9-122.5 122.5"/></defs><clipPath id="dB"><use xlink:href="#dA" overflow="visible"/></clipPath><path clip-path="url(#dB)" fill="none" stroke="#fff" stroke-width=".123" d="M110.7 253.7l4.8 5.5h-.4l-4.9-5.2z"/><defs><path id="dC" d="M60.1 179.3c0 67.6 54.8 122.5 122.5 122.5 67.6 0 122.5-54.8 122.5-122.5 0-67.6-54.8-122.5-122.5-122.5-67.6 0-122.5 54.9-122.5 122.5"/></defs><clipPath id="dD"><use xlink:href="#dC" overflow="visible"/></clipPath><path clip-path="url(#dD)" fill="none" stroke="#fff" stroke-width=".086" d="M106.7 259.6l.3 1.2 4.3.3"/><defs><path id="dE" d="M60.1 179.3c0 67.6 54.8 122.5 122.5 122.5 67.6 0 122.5-54.8 122.5-122.5 0-67.6-54.8-122.5-122.5-122.5-67.6 0-122.5 54.9-122.5 122.5"/></defs><clipPath id="dF"><use xlink:href="#dE" overflow="visible"/></clipPath><path clip-path="url(#dF)" fill="none" stroke="#000" stroke-width=".086" d="M107 260.8l-1.2.5"/><defs><path id="dG" d="M60.1 179.3c0 67.6 54.8 122.5 122.5 122.5 67.6 0 122.5-54.8 122.5-122.5 0-67.6-54.8-122.5-122.5-122.5-67.6 0-122.5 54.9-122.5 122.5"/></defs><clipPath id="dH"><use xlink:href="#dG" overflow="visible"/></clipPath><path d="M137.2 239.8l-3.2-55.2c16 5.7 25.4 18.8 27.8 30.2.6 2.9.9 6.1.9 9.6 0 6.1-.5 18.3-1 23.3-.1.8-2.3 1.2-4.5 1.2-7.1-.1-15.5-5.9-20-9.1" clip-path="url(#dH)" fill="#fbcc0c"/><defs><path id="dI" d="M60.1 179.3c0 67.6 54.8 122.5 122.5 122.5 67.6 0 122.5-54.8 122.5-122.5 0-67.6-54.8-122.5-122.5-122.5-67.6 0-122.5 54.9-122.5 122.5"/></defs><clipPath id="dJ"><use xlink:href="#dI" overflow="visible"/></clipPath><path d="M137.2 239.8l-3.2-55.2c16 5.7 25.4 18.8 27.8 30.2.6 2.9.9 6.1.9 9.6 0 6.1-.5 18.3-1 23.3-.1.8-2.3 1.2-4.5 1.2-7.1-.1-15.5-5.9-20-9.1z" clip-path="url(#dJ)" fill="none" stroke="#fbcc0c" stroke-width=".238"/><defs><path id="dK" d="M60.1 179.3c0 67.6 54.8 122.5 122.5 122.5 67.6 0 122.5-54.8 122.5-122.5 0-67.6-54.8-122.5-122.5-122.5-67.6 0-122.5 54.9-122.5 122.5"/></defs><clipPath id="dL"><use xlink:href="#dK" overflow="visible"/></clipPath><path clip-path="url(#dL)" fill="none" stroke="#fff" stroke-width=".123" d="M159.7 247.4l-12.1 11.1"/><defs><path id="dM" d="M60.1 179.3c0 67.6 54.8 122.5 122.5 122.5 67.6 0 122.5-54.8 122.5-122.5 0-67.6-54.8-122.5-122.5-122.5-67.6 0-122.5 54.9-122.5 122.5"/></defs><clipPath id="dN"><use xlink:href="#dM" overflow="visible"/></clipPath><path clip-path="url(#dN)" fill="#16204b" d="M138.3 248.5l21.4-.9v-.8l-21.4 1-.6.3z"/><defs><path id="dO" d="M60.1 179.3c0 67.6 54.8 122.5 122.5 122.5 67.6 0 122.5-54.8 122.5-122.5 0-67.6-54.8-122.5-122.5-122.5-67.6 0-122.5 54.9-122.5 122.5"/></defs><clipPath id="dP"><use xlink:href="#dO" overflow="visible"/></clipPath><path clip-path="url(#dP)" fill="none" stroke="#16204b" stroke-width=".178" d="M138.3 248.5l21.4-.9v-.8l-21.4 1-.6.3z"/><defs><path id="dQ" d="M60.1 179.3c0 67.6 54.8 122.5 122.5 122.5 67.6 0 122.5-54.8 122.5-122.5 0-67.6-54.8-122.5-122.5-122.5-67.6 0-122.5 54.9-122.5 122.5"/></defs><clipPath id="dR"><use xlink:href="#dQ" overflow="visible"/></clipPath><path clip-path="url(#dR)" fill="#16204b" d="M138.2 257.2l-5.4-90.2h-.5l4.8 90z"/><defs><path id="dS" d="M60.1 179.3c0 67.6 54.8 122.5 122.5 122.5 67.6 0 122.5-54.8 122.5-122.5 0-67.6-54.8-122.5-122.5-122.5-67.6 0-122.5 54.9-122.5 122.5"/></defs><clipPath id="dT"><use xlink:href="#dS" overflow="visible"/></clipPath><path clip-path="url(#dT)" fill="none" stroke="#16204b" stroke-width=".178" d="M138.2 257.2l-5.4-90.2h-.5l4.8 90z"/><defs><path id="dU" d="M60.1 179.3c0 67.6 54.8 122.5 122.5 122.5 67.6 0 122.5-54.8 122.5-122.5 0-67.6-54.8-122.5-122.5-122.5-67.6 0-122.5 54.9-122.5 122.5"/></defs><clipPath id="dV"><use xlink:href="#dU" overflow="visible"/></clipPath><path d="M159.7 246.9c1.5-6.5 2.8-15 2.8-22.7" clip-path="url(#dV)" fill="none" stroke="#fff" stroke-width=".178"/><defs><path id="dW" d="M60.1 179.3c0 67.6 54.8 122.5 122.5 122.5 67.6 0 122.5-54.8 122.5-122.5 0-67.6-54.8-122.5-122.5-122.5-67.6 0-122.5 54.9-122.5 122.5"/></defs><clipPath id="dX"><use xlink:href="#dW" overflow="visible"/></clipPath><path d="M161.7 247.6c0-.6-.9-.8-1.9-.9" clip-path="url(#dX)" fill="none" stroke="#000" stroke-width=".178" stroke-linecap="round"/><defs><path id="dY" d="M60.1 179.3c0 67.6 54.8 122.5 122.5 122.5 67.6 0 122.5-54.8 122.5-122.5 0-67.6-54.8-122.5-122.5-122.5-67.6 0-122.5 54.9-122.5 122.5"/></defs><clipPath id="dZ"><use xlink:href="#dY" overflow="visible"/></clipPath><path d="M115.5 216.8c5 .1 14.5.1 19.4-.5v-.5c-4.9.5-14.3.6-19.3.5" clip-path="url(#dZ)" fill="#fff"/><defs><path id="ea" d="M60.1 179.3c0 67.6 54.8 122.5 122.5 122.5 67.6 0 122.5-54.8 122.5-122.5 0-67.6-54.8-122.5-122.5-122.5-67.6 0-122.5 54.9-122.5 122.5"/></defs><clipPath id="eb"><use xlink:href="#ea" overflow="visible"/></clipPath><path d="M115.5 216.8c5 .1 14.5.1 19.4-.5v-.5c-4.9.5-14.3.6-19.3.5" clip-path="url(#eb)" fill="none" stroke="#fff" stroke-width=".086"/><defs><path id="ec" d="M60.1 179.3c0 67.6 54.8 122.5 122.5 122.5 67.6 0 122.5-54.8 122.5-122.5 0-67.6-54.8-122.5-122.5-122.5-67.6 0-122.5 54.9-122.5 122.5"/></defs><clipPath id="ed"><use xlink:href="#ec" overflow="visible"/></clipPath><path d="M110.6 238c5 .1 20.3-.5 25.2-1v-.5c-4.9.5-20.1 1.1-25.1 1" clip-path="url(#ed)" fill="#fff"/><defs><path id="ee" d="M60.1 179.3c0 67.6 54.8 122.5 122.5 122.5 67.6 0 122.5-54.8 122.5-122.5 0-67.6-54.8-122.5-122.5-122.5-67.6 0-122.5 54.9-122.5 122.5"/></defs><clipPath id="ef"><use xlink:href="#ee" overflow="visible"/></clipPath><path d="M110.6 238c5 .1 20.3-.5 25.2-1v-.5c-4.9.5-20.1 1.1-25.1 1" clip-path="url(#ef)" fill="none" stroke="#fff" stroke-width=".086"/><defs><path id="eg" d="M60.1 179.3c0 67.6 54.8 122.5 122.5 122.5 67.6 0 122.5-54.8 122.5-122.5 0-67.6-54.8-122.5-122.5-122.5-67.6 0-122.5 54.9-122.5 122.5"/></defs><clipPath id="eh"><use xlink:href="#eg" overflow="visible"/></clipPath><path d="M122.8 190.9c2.3.1 8.3-.1 10.7-.3v-.5c-2.4.2-8.2.4-10.5.3l-.2.5z" clip-path="url(#eh)" fill="#fff"/><defs><path id="ei" d="M60.1 179.3c0 67.6 54.8 122.5 122.5 122.5 67.6 0 122.5-54.8 122.5-122.5 0-67.6-54.8-122.5-122.5-122.5-67.6 0-122.5 54.9-122.5 122.5"/></defs><clipPath id="ej"><use xlink:href="#ei" overflow="visible"/></clipPath><path d="M122.8 190.9c2.3.1 8.3-.1 10.7-.3v-.5c-2.4.2-8.2.4-10.5.3l-.2.5z" clip-path="url(#ej)" fill="none" stroke="#fff" stroke-width=".086"/><defs><path id="ek" d="M60.1 179.3c0 67.6 54.8 122.5 122.5 122.5 67.6 0 122.5-54.8 122.5-122.5 0-67.6-54.8-122.5-122.5-122.5-67.6 0-122.5 54.9-122.5 122.5"/></defs><clipPath id="el"><use xlink:href="#ek" overflow="visible"/></clipPath><path d="M136.7 231.5l2.2-7.2.5.1.5-5.2h.5l.3-5.3h.6c.1-1.4-.1-4.2-.3-5.5l1.1-.3c-1-6.3-4.2-15.4-6.3-20.2-.9-2.1-.7-2.9-1.9-3.4.6 10.5 2.1 20.5 3.3 24.6l-.7.2.8 4.8-.5.1.5 4.9h-.4l-.3 4.9-.2 1.2.3 6.3z" clip-path="url(#el)" fill="#fff"/><defs><path id="em" d="M60.1 179.3c0 67.6 54.8 122.5 122.5 122.5 67.6 0 122.5-54.8 122.5-122.5 0-67.6-54.8-122.5-122.5-122.5-67.6 0-122.5 54.9-122.5 122.5"/></defs><clipPath id="en"><use xlink:href="#em" overflow="visible"/></clipPath><path d="M136.9 234.6c2.7-3.4 6.6-12.1 7.5-18" clip-path="url(#en)" fill="none" stroke="#fff" stroke-width=".178" stroke-linecap="round"/><defs><path id="eo" d="M60.1 179.3c0 67.6 54.8 122.5 122.5 122.5 67.6 0 122.5-54.8 122.5-122.5 0-67.6-54.8-122.5-122.5-122.5-67.6 0-122.5 54.9-122.5 122.5"/></defs><clipPath id="ep"><use xlink:href="#eo" overflow="visible"/></clipPath><path d="M137 235.8c2.4-2.2 5.5-6 6.9-8.9" clip-path="url(#ep)" fill="none" stroke="#fff" stroke-width=".178" stroke-linecap="round"/><defs><path id="eq" d="M60.1 179.3c0 67.6 54.8 122.5 122.5 122.5 67.6 0 122.5-54.8 122.5-122.5 0-67.6-54.8-122.5-122.5-122.5-67.6 0-122.5 54.9-122.5 122.5"/></defs><clipPath id="er"><use xlink:href="#eq" overflow="visible"/></clipPath><path d="M137 236.6c1.5-.8 3.9-2.4 5.2-3.7" clip-path="url(#er)" fill="none" stroke="#fff" stroke-width=".178" stroke-linecap="round"/><defs><path id="es" d="M60.1 179.3c0 67.6 54.8 122.5 122.5 122.5 67.6 0 122.5-54.8 122.5-122.5 0-67.6-54.8-122.5-122.5-122.5-67.6 0-122.5 54.9-122.5 122.5"/></defs><clipPath id="et"><use xlink:href="#es" overflow="visible"/></clipPath><path d="M137.1 237.4c1.2-.4 2.6-.9 3.4-1.4" clip-path="url(#et)" fill="none" stroke="#fff" stroke-width=".178" stroke-linecap="round"/><defs><path id="eu" d="M60.1 179.3c0 67.6 54.8 122.5 122.5 122.5 67.6 0 122.5-54.8 122.5-122.5 0-67.6-54.8-122.5-122.5-122.5-67.6 0-122.5 54.9-122.5 122.5"/></defs><clipPath id="ev"><use xlink:href="#eu" overflow="visible"/></clipPath><path d="M130 247.5c2 .1 5 1.2 6.7 2.2-1.5-.4-4.2-.7-5.2-.7" clip-path="url(#ev)" fill="none" stroke="#fff" stroke-width=".178" stroke-linecap="round"/><defs><path id="ew" d="M60.1 179.3c0 67.6 54.8 122.5 122.5 122.5 67.6 0 122.5-54.8 122.5-122.5 0-67.6-54.8-122.5-122.5-122.5-67.6 0-122.5 54.9-122.5 122.5"/></defs><clipPath id="ex"><use xlink:href="#ew" overflow="visible"/></clipPath><path d="M113.5 245c-2.1 1.6-5 5.3-5.8 7.6 1.7-1.8 2.9-2.4 4.5-3" clip-path="url(#ex)" fill="none" stroke="#fff" stroke-width=".178" stroke-linecap="round"/><defs><path id="ey" d="M60.1 179.3c0 67.6 54.8 122.5 122.5 122.5 67.6 0 122.5-54.8 122.5-122.5 0-67.6-54.8-122.5-122.5-122.5-67.6 0-122.5 54.9-122.5 122.5"/></defs><clipPath id="ez"><use xlink:href="#ey" overflow="visible"/></clipPath><path clip-path="url(#ez)" fill="#16204b" d="M136.7 249.7l-30.2 3.1.1.9 21.5-2 9 5.3-.1-1-7.5-4.4 4.5-.5 2.7-.9z"/><defs><path id="eA" d="M60.1 179.3c0 67.6 54.8 122.5 122.5 122.5 67.6 0 122.5-54.8 122.5-122.5 0-67.6-54.8-122.5-122.5-122.5-67.6 0-122.5 54.9-122.5 122.5"/></defs><clipPath id="eB"><use xlink:href="#eA" overflow="visible"/></clipPath><path clip-path="url(#eB)" fill="none" stroke="#16204b" stroke-width=".178" stroke-linejoin="round" d="M136.7 249.7l-30.2 3.1.1.9 21.5-2 9 5.3-.1-1-7.5-4.4 4.5-.5 2.7-.9z"/><defs><path id="eC" d="M60.1 179.3c0 67.6 54.8 122.5 122.5 122.5 67.6 0 122.5-54.8 122.5-122.5 0-67.6-54.8-122.5-122.5-122.5-67.6 0-122.5 54.9-122.5 122.5"/></defs><clipPath id="eD"><use xlink:href="#eC" overflow="visible"/></clipPath><path clip-path="url(#eD)" fill="none" stroke="#fff" stroke-width=".123" d="M152.9 258.5l-19.4-79.3"/><defs><path id="eE" d="M60.1 179.3c0 67.6 54.8 122.5 122.5 122.5 67.6 0 122.5-54.8 122.5-122.5 0-67.6-54.8-122.5-122.5-122.5-67.6 0-122.5 54.9-122.5 122.5"/></defs><clipPath id="eF"><use xlink:href="#eE" overflow="visible"/></clipPath><path d="M160.7 242.5c.1-.7.4-2.5.5-3.2-1.1-2.7-4.2-6.4-7.1-8.3-3 2.2-10.5 6.7-14.4 8.1l.7 1.3c4.5-.7 9.7-2.1 12.6-3 2.1.9 6 3.4 7.7 5.1" clip-path="url(#eF)" fill="#fff"/><defs><path id="eG" d="M164.6 152.2l.4 4.1-12.9 10.9.2 1.9 1.8.2.1 8.1-1.3-.1.1 8.1 8.5 3.9.7 12.2 14.9-2.9v-11.5l7.3-6.4-1.1-16 2.9-1.3-.1-1.3-12.7-6.6-.4-4.1-4.5-3.8z"/></defs><clipPath id="eH"><use xlink:href="#eG" overflow="visible"/></clipPath><linearGradient id="eI" gradientUnits="userSpaceOnUse" x1="-298.136" y1="314.122" x2="-296.196" y2="314.122" gradientTransform="rotate(90 232.9 8666.584) scale(27.793)"><stop offset="0" stop-color="#51575c"/><stop offset=".734" stop-color="#51575c"/><stop offset="1" stop-color="#393d42"/></linearGradient><path clip-path="url(#eH)" fill="url(#eI)" d="M152.1 147.6h34v53.9h-34z"/><g><defs><path id="eJ" d="M60.1 179.3c0 67.6 54.8 122.5 122.5 122.5 67.6 0 122.5-54.8 122.5-122.5 0-67.6-54.8-122.5-122.5-122.5-67.6 0-122.5 54.9-122.5 122.5"/></defs><clipPath id="eK"><use xlink:href="#eJ" overflow="visible"/></clipPath><path clip-path="url(#eK)" fill="#969a9c" d="M153.7 167.7l9.2.8 11.2-1.4 10.1-4.2-12.3-6.1-5.7.4z"/><defs><path id="eL" d="M60.1 179.3c0 67.6 54.8 122.5 122.5 122.5 67.6 0 122.5-54.8 122.5-122.5 0-67.6-54.8-122.5-122.5-122.5-67.6 0-122.5 54.9-122.5 122.5"/></defs><clipPath id="eM"><use xlink:href="#eL" overflow="visible"/></clipPath><path clip-path="url(#eM)" fill="none" stroke="#f4e5ce" stroke-width=".237" stroke-miterlimit="3.864" d="M153.7 167.7l9.2.8 11.2-1.4 10.1-4.2-12.3-6.1-5.7.4z"/><defs><path id="eN" d="M60.1 179.3c0 67.6 54.8 122.5 122.5 122.5 67.6 0 122.5-54.8 122.5-122.5 0-67.6-54.8-122.5-122.5-122.5-67.6 0-122.5 54.9-122.5 122.5"/></defs><clipPath id="eO"><use xlink:href="#eN" overflow="visible"/></clipPath><path clip-path="url(#eO)" fill="#969a9c" d="M166.8 155.7l4.6-.4-.1-3.1-2.7-2.3-2.1 2.5z"/><defs><path id="eP" d="M60.1 179.3c0 67.6 54.8 122.5 122.5 122.5 67.6 0 122.5-54.8 122.5-122.5 0-67.6-54.8-122.5-122.5-122.5-67.6 0-122.5 54.9-122.5 122.5"/></defs><clipPath id="eQ"><use xlink:href="#eP" overflow="visible"/></clipPath><path clip-path="url(#eQ)" fill="none" stroke="#f4e5ce" stroke-width=".237" stroke-miterlimit="3.864" d="M166.8 155.7l4.6-.4-.1-3.1-2.7-2.3-2.1 2.5z"/><defs><path id="eR" d="M60.1 179.3c0 67.6 54.8 122.5 122.5 122.5 67.6 0 122.5-54.8 122.5-122.5 0-67.6-54.8-122.5-122.5-122.5-67.6 0-122.5 54.9-122.5 122.5"/></defs><clipPath id="eS"><use xlink:href="#eR" overflow="visible"/></clipPath><path d="M155.8 169.3l6.8.7 10.9-1.2 8.2-3.4.5 8.1-1.9 1.3s-.1-1.5-.4-3.6c-.3-2.5-3.8-2.1-3.4 1.5l.4 4-1.8 1.2-3.5 1s-.2-3.2-.4-5.6c-.2-2.4-4.7-3.6-4.7.4.1 3.7.2 5.7.2 5.7h-3.6l-1.7-.5s0-1.9-.1-4.4c-.1-2.7-3.4-3-3.3.2.1 1.9 0 3.4 0 3.4l-2.1-.5-.1-8.3z" clip-path="url(#eS)" fill="#969a9c"/><defs><path id="eT" d="M60.1 179.3c0 67.6 54.8 122.5 122.5 122.5 67.6 0 122.5-54.8 122.5-122.5 0-67.6-54.8-122.5-122.5-122.5-67.6 0-122.5 54.9-122.5 122.5"/></defs><clipPath id="eU"><use xlink:href="#eT" overflow="visible"/></clipPath><path d="M155.8 169.3l6.8.7 10.9-1.2 8.2-3.4.5 8.1-1.9 1.3s-.1-1.5-.4-3.6c-.3-2.5-3.8-2.1-3.4 1.5l.4 4-1.8 1.2-3.5 1s-.2-3.2-.4-5.6c-.2-2.4-4.7-3.6-4.7.4.1 3.7.2 5.7.2 5.7h-3.6l-1.7-.5s0-1.9-.1-4.4c-.1-2.7-3.4-3-3.3.2.1 1.9 0 3.4 0 3.4l-2.1-.5-.1-8.3z" clip-path="url(#eU)" fill="none" stroke="#f4e5ce" stroke-width=".237" stroke-miterlimit="3.864"/><defs><path id="eV" d="M60.1 179.3c0 67.6 54.8 122.5 122.5 122.5 67.6 0 122.5-54.8 122.5-122.5 0-67.6-54.8-122.5-122.5-122.5-67.6 0-122.5 54.9-122.5 122.5"/></defs><clipPath id="eW"><use xlink:href="#eV" overflow="visible"/></clipPath><path clip-path="url(#eW)" fill="#969a9c" d="M154.6 179l8.9 2h5.7l6-1.6 6.9-4.3.5 4.9-7.4 6.9-5.6 1.8h-5.4l-9.5-4.4z"/><defs><path id="eX" d="M60.1 179.3c0 67.6 54.8 122.5 122.5 122.5 67.6 0 122.5-54.8 122.5-122.5 0-67.6-54.8-122.5-122.5-122.5-67.6 0-122.5 54.9-122.5 122.5"/></defs><clipPath id="eY"><use xlink:href="#eX" overflow="visible"/></clipPath><path clip-path="url(#eY)" fill="none" stroke="#f4e5ce" stroke-width=".237" stroke-miterlimit="3.864" d="M154.6 179l8.9 2h5.7l6-1.6 6.9-4.3.5 4.9-7.4 6.9-5.6 1.8h-5.4l-9.5-4.4z"/><defs><path id="eZ" d="M60.1 179.3c0 67.6 54.8 122.5 122.5 122.5 67.6 0 122.5-54.8 122.5-122.5 0-67.6-54.8-122.5-122.5-122.5-67.6 0-122.5 54.9-122.5 122.5"/></defs><clipPath id="fa"><use xlink:href="#eZ" overflow="visible"/></clipPath><path clip-path="url(#fa)" fill="#969a9c" d="M163.3 190.1l6.4.3 5.7-1.7-.1 12.2-11.6 2.5z"/><defs><path id="fb" d="M60.1 179.3c0 67.6 54.8 122.5 122.5 122.5 67.6 0 122.5-54.8 122.5-122.5 0-67.6-54.8-122.5-122.5-122.5-67.6 0-122.5 54.9-122.5 122.5"/></defs><clipPath id="fc"><use xlink:href="#fb" overflow="visible"/></clipPath><path clip-path="url(#fc)" fill="none" stroke="#f4e5ce" stroke-width=".237" stroke-miterlimit="3.864" d="M163.3 190.1l6.4.3 5.7-1.7-.1 12.2-11.6 2.5z"/><defs><path id="fd" d="M60.1 179.3c0 67.6 54.8 122.5 122.5 122.5 67.6 0 122.5-54.8 122.5-122.5 0-67.6-54.8-122.5-122.5-122.5-67.6 0-122.5 54.9-122.5 122.5"/></defs><clipPath id="fe"><use xlink:href="#fd" overflow="visible"/></clipPath><path clip-path="url(#fe)" fill="none" stroke="#f4e5ce" stroke-width=".162" stroke-miterlimit="3.864" d="M163.3 180.9l.7 7.8"/><defs><path id="ff" d="M60.1 179.3c0 67.6 54.8 122.5 122.5 122.5 67.6 0 122.5-54.8 122.5-122.5 0-67.6-54.8-122.5-122.5-122.5-67.6 0-122.5 54.9-122.5 122.5"/></defs><clipPath id="fg"><use xlink:href="#ff" overflow="visible"/></clipPath><path clip-path="url(#fg)" fill="none" stroke="#f4e5ce" stroke-width=".162" stroke-miterlimit="3.864" d="M162.9 169.9l.1 9.4"/><defs><path id="fh" d="M60.1 179.3c0 67.6 54.8 122.5 122.5 122.5 67.6 0 122.5-54.8 122.5-122.5 0-67.6-54.8-122.5-122.5-122.5-67.6 0-122.5 54.9-122.5 122.5"/></defs><clipPath id="fi"><use xlink:href="#fh" overflow="visible"/></clipPath><path clip-path="url(#fi)" fill="none" stroke="#f4e5ce" stroke-width=".162" stroke-miterlimit="3.864" d="M167.4 157.1l-4.3 11.4"/><defs><path id="fj" d="M60.1 179.3c0 67.6 54.8 122.5 122.5 122.5 67.6 0 122.5-54.8 122.5-122.5 0-67.6-54.8-122.5-122.5-122.5-67.6 0-122.5 54.9-122.5 122.5"/></defs><clipPath id="fk"><use xlink:href="#fj" overflow="visible"/></clipPath><path clip-path="url(#fk)" fill="none" stroke="#f4e5ce" stroke-width=".162" stroke-miterlimit="3.864" d="M175.2 179.3l.1 7.6"/><defs><path id="fl" d="M60.1 179.3c0 67.6 54.8 122.5 122.5 122.5 67.6 0 122.5-54.8 122.5-122.5 0-67.6-54.8-122.5-122.5-122.5-67.6 0-122.5 54.9-122.5 122.5"/></defs><clipPath id="fm"><use xlink:href="#fl" overflow="visible"/></clipPath><path clip-path="url(#fm)" fill="none" stroke="#f4e5ce" stroke-width=".162" stroke-miterlimit="3.864" d="M174.3 168.2l.8 9.4"/><defs><path id="fn" d="M60.1 179.3c0 67.6 54.8 122.5 122.5 122.5 67.6 0 122.5-54.8 122.5-122.5 0-67.6-54.8-122.5-122.5-122.5-67.6 0-122.5 54.9-122.5 122.5"/></defs><clipPath id="fo"><use xlink:href="#fn" overflow="visible"/></clipPath><path clip-path="url(#fo)" fill="none" stroke="#f4e5ce" stroke-width=".162" stroke-miterlimit="3.864" d="M170.3 156.9l3.8 10"/><defs><path id="fp" d="M60.1 179.3c0 67.6 54.8 122.5 122.5 122.5 67.6 0 122.5-54.8 122.5-122.5 0-67.6-54.8-122.5-122.5-122.5-67.6 0-122.5 54.9-122.5 122.5"/></defs><clipPath id="fq"><use xlink:href="#fp" overflow="visible"/></clipPath><path d="M316.4 179.8c.8.4 1.5 0 2.3-.8 0-1.5-1.5-2.3-2.7-1.5l.4 2.3z" clip-path="url(#fq)"/></g><g><circle cx="182.6" cy="179.3" r="122.5" fill="none" stroke="#f99e1c" stroke-width="2.612" stroke-miterlimit="3.864"/><path d="M50.2 245.6c-1.6 2.1-2.1 3.3-2.2 4.7-.1 1.7.6 3.9 2.1 6.4 2 3.3 4.4 5.4 7.4 6.3 3.1.9 6.1.4 9.3-1.5 6.7-4 8-9.8 3.8-16.7-1.4-2.3-2.9-3.9-4.6-4.7-1.6-.8-2.9-1-5.4-.7l.7 5.5c1.3-.3 2-.3 2.8-.1 1.1.3 2.2 1.1 2.9 2.3 2 3.2.7 6.6-3.3 9-4.3 2.6-7.9 2.2-9.9-1.1-.7-1.2-1-2.4-.8-3.5.1-.9.5-1.5 1.6-2.5l-4.4-3.4zm-9.297-8.427l20.734-9.238 2.36 5.297-20.734 9.24zM39.2 219.3l-1.9-6.3-4 1.2 5.5 18.1 4-1.2-1.9-6.3 17.8-5.4-1.7-5.5zm-9.1-26.9l9 4-7.8 6.4.8 6.4L44.4 199l9.2-1.1-.7-5.7-9.4 1.1-14.2-6.8zm1.6-40.6c-.6 3.3-.4 6.1.8 8.6 1.5 3.1 4.2 4.9 8.3 5.7 4.5.9 7.6.3 10.2-2.1 2-1.8 3.3-4.4 4-7.7.6-3.3.4-6.1-.8-8.6-1.5-3.1-4.2-4.9-8.5-5.7s-7.4-.2-10 2.1c-2 1.9-3.3 4.4-4 7.7m4.2.9c.7-3.6 4.1-5.4 8.6-4.5 4.6.9 7.1 3.8 6.4 7.4-.7 3.7-4.1 5.4-8.7 4.5-4.5-.9-7-3.9-6.3-7.4m12.5-23.3l-5-1.9 3.2-8.4-3.9-1.6-5.3 13.9 21.2 8.1 2.1-5.4-8.6-3.3 3.1-8.1-3.7-1.4zm22.2-46.9c-2.5-.6-3.8-.6-5.2-.2-1.6.5-3.4 2.1-5.1 4.4-2.3 3.2-3.3 6.2-2.9 9.2.4 3.2 2 5.8 5.1 8 6.3 4.6 12.1 3.5 16.9-3 1.6-2.2 2.4-4.2 2.5-6.1.1-1.8-.2-3-1.4-5.2l-4.8 2.8c.8 1.1 1.1 1.7 1.2 2.5.2 1.2-.2 2.5-1 3.6-2.2 3.1-5.8 3.2-9.5.5-4.1-2.9-5.1-6.4-2.9-9.5.8-1.1 1.9-1.9 2.9-2.1.9-.2 1.6-.1 2.9.5l1.3-5.4zm9.5-17.2c-2.5 2.2-4 4.7-4.5 7.4-.6 3.3.4 6.4 3.2 9.5 3.1 3.4 5.9 4.7 9.5 4.5 2.7-.2 5.3-1.5 7.8-3.7s4-4.7 4.5-7.4c.6-3.4-.4-6.4-3.3-9.7-2.9-3.3-5.8-4.6-9.3-4.3-2.8.2-5.4 1.4-7.9 3.7m2.9 3.1c2.7-2.5 6.5-1.8 9.6 1.6 3.1 3.5 3.4 7.3.6 9.8s-6.5 1.8-9.7-1.7c-3-3.4-3.2-7.2-.5-9.7m26.3 3.4l4.9-2.9-4.6-7.7 1.9-1.2 8.8 5.2 5.8-3.5-10.3-5.4c1.6-2.8 1.7-5.1.3-7.5-1.3-2.1-3.2-3.2-5.5-3.2-1.6.1-2.7.5-5.6 2.3l-7.3 4.4 11.6 19.5zm-1.8-14.1l-2.8-4.6 1.1-.7.7-.5c2.4-1.4 3.6-1.3 4.6.2 1 1.7.3 3.3-2 4.6l-.2.1-1.4.9zm22.5 2.7l5.4-2.1-3-7.9 1.4-.5c2.3-.9 4-1.8 5.1-2.8 2.3-2.1 3-5 1.9-7.9-.8-2.1-2.3-3.6-4.3-4.1-1.7-.5-3.1-.3-5.9.8l-8.8 3.4 8.2 21.1zm.9-14l-2-5.3 1.6-.6c1.6-.6 2-.7 2.6-.7 1.1 0 1.9.7 2.4 1.8.7 1.9-.2 3.2-3.1 4.3l-1.5.5zm16-15.7l2.1 13.2c.5 3 .9 4.2 2 5.6 2 2.4 5.3 3.3 9.8 2.6 3.9-.6 6.6-2.1 7.9-4.4 1.1-1.8 1.3-3.5.7-7l-2.1-13.2-5.7.9 2.1 13.1c.3 1.9.3 2.9.1 3.7-.4 1.4-1.7 2.4-3.7 2.7-1.7.3-3.2-.1-4-1-.7-.7-1-1.7-1.4-4l-2.1-13.1-5.7.9zm46.7.2c-1.2-3.1-3.8-4.4-8.3-4.5-2.8-.1-5 .6-6.6 1.8-1.5 1.2-2.4 3-2.5 4.9 0 1.5.6 3.2 1.6 4.3s3 2.3 4.8 2.8c2.6.8 2.6.8 3.4 1.3 1 .6 1.4 1.2 1.4 2.2 0 1.5-1.3 2.5-3.3 2.4-2.1 0-3.5-1-4.3-3l-5.2 1.9c.8 1.9 1.4 2.6 2.9 3.6 1.7 1.1 3.7 1.6 6.4 1.7 2.9.1 4.9-.4 6.6-1.6 2-1.3 3.1-3.4 3.1-5.7 0-1.9-.7-3.7-2-4.7-1-.8-2.5-1.5-4.6-2.2-3-1-3-1-3.7-1.4-.8-.4-1.2-1.1-1.2-1.9 0-1.4 1.3-2.4 3-2.4 1.8 0 3 .9 3.6 2.8l4.9-2.3zm43.9 11.7c-.2-2.6-.6-3.8-1.4-5-1-1.4-3-2.6-5.7-3.5-3.7-1.2-6.9-1.2-9.7.1-2.9 1.3-4.9 3.7-6.1 7.3-2.4 7.4.4 12.6 8.1 15.1 2.6.8 4.7 1 6.6.5 1.7-.4 2.8-1.2 4.5-3l-4.2-3.7c-.8 1.1-1.3 1.6-2 1.9-1 .5-2.4.6-3.7.2-3.6-1.2-4.8-4.5-3.4-8.9 1.5-4.8 4.5-6.8 8.2-5.7 1.3.4 2.3 1.2 2.9 2.1.5.8.6 1.5.4 2.9l5.5-.3zm27.3 8.1l-5.1-2.8-4.4 8-7.9-4.4 4.4-8-5-2.8-11.1 19.9 5.1 2.8 4.5-8.1 7.9 4.4-4.5 8.1 5.1 2.8zM259 74.3l4.4 3.7 5.8-6.9 1.7 1.4-2.1 10 5.1 4.3 1.8-11.5c3.2.6 5.4 0 7.2-2.2 1.6-1.9 2-4.1 1.2-6.2-.6-1.5-1.4-2.4-4-4.6l-6.6-5.5L259 74.3zm12.8-6.3l3.5-4.2 1 .8.7.5c2.1 1.8 2.4 3 1.3 4.4-1.2 1.5-3.1 1.3-5-.4l-.2-.1-1.3-1zm4.7 22.027l16.608-15.477 3.955 4.243-16.608 15.477zm32.7 11.273c1.7-2.8 1.4-5.7-1.2-9.4-1.6-2.3-3.4-3.7-5.3-4.3-1.9-.5-3.9-.2-5.4.9-1.2.9-2.3 2.4-2.5 3.8-.3 1.4-.1 3.8.5 5.5.9 2.6.9 2.6 1 3.5.1 1.1-.1 1.8-.9 2.4-1.2.9-2.8.4-3.9-1.2-1.2-1.7-1.2-3.4-.1-5.2l-4.6-3.1c-1 1.7-1.3 2.7-1.2 4.5.1 2 .8 3.9 2.4 6.2 1.7 2.4 3.2 3.7 5.2 4.4 2.2.8 4.6.5 6.5-.8 1.5-1.1 2.5-2.7 2.6-4.4.1-1.2-.2-2.9-.9-5-.9-3-.9-3-1-3.8-.1-.9.2-1.7.8-2.1 1.1-.8 2.8-.3 3.7 1 1 1.5 1 3-.1 4.6l4.4 2.5zm7.9 16l2.9 5.9 3.7-1.8-8.2-17-3.8 1.9 2.9 5.8-16.7 8.2 2.5 5.2zm-13.233 16.543l21.467-7.378 1.885 5.485-21.467 7.378zM330.1 165.2l.8 6.5 4.2-.5-2.3-18.8-4.2.5.8 6.5-18.4 2.3.7 5.7zm-4.5 17.7l5 .2-.3 9.1 4.2.2.5-14.9-22.7-.8-.5 16.2 4.2.2.4-10.5 5.2.2-.3 9.1 4 .1zM331 214l-5.1-5 6.5-2.6 1.4-6.7-12.1 4.8-10.1-10.2-1.2 6.6 5.9 5.8-7.6 3-1.4 6.9 13.4-5.4 9.1 9z" fill="#fff"/><path d="M322.7 239.3l2.4-5.9-17.7-16.9-2.1 5.2 3.8 3.5-3.1 7.8-5.1-.2-2.3 5.6 24.1.9zm-12.8-5.9l2.2-5.5 6.3 5.9-8.5-.4zm-5.8 31.9c3.3.5 5.7-1 8.1-4.8 1.5-2.4 2.1-4.6 1.9-6.6-.3-1.9-1.3-3.6-2.9-4.6-1.3-.8-3.1-1.1-4.5-.8s-3.5 1.4-4.9 2.6c-2 1.8-2 1.8-2.8 2.2-1 .6-1.7.6-2.6.1-1.3-.8-1.4-2.4-.4-4 1.1-1.8 2.7-2.5 4.8-2.1l1-5.4c-2-.3-3-.1-4.6.6-1.8.9-3.3 2.3-4.7 4.6-1.5 2.4-2.2 4.4-2 6.5.1 2.4 1.3 4.4 3.3 5.6 1.6 1 3.5 1.3 5.1.7 1.2-.4 2.6-1.4 4.3-2.8 2.4-2 2.4-2 3.1-2.4.8-.5 1.6-.5 2.3-.1 1.2.7 1.4 2.4.5 3.8-1 1.5-2.3 2.1-4.3 1.7l-.7 5.2zm-168.608 41.846l2.833-8.225 1.986.683-2.833 8.226zM149.6 302.5l-2-.6-1.6 5.2-2.3-6.4-1.8-.6-2.6 8.4 2 .6 1.6-5.1 2.2 6.2 1.9.6zm8.1 3.8c-.2-1-.3-1.4-.7-1.8-.4-.5-1.2-.9-2.2-1.1-1.4-.3-2.5-.1-3.5.5s-1.6 1.6-1.9 3c-.6 2.9.6 4.8 3.4 5.4 1 .2 1.7.2 2.4-.1.6-.2 1-.6 1.5-1.3l-1.6-1.2c-.3.5-.4.6-.7.8-.4.2-.8.3-1.3.2-1.3-.3-1.9-1.5-1.5-3.2.4-1.9 1.4-2.8 2.8-2.5.5.1.9.4 1.1.7.2.3.3.5.3 1.1l1.9-.5zm5-1.4c-1.2-.2-2.2 0-3.1.5-1.1.6-1.7 1.7-2 3.3-.3 1.7 0 2.9.9 3.9.7.7 1.6 1.2 2.8 1.4 1.2.2 2.2 0 3.1-.5 1.1-.6 1.7-1.7 2-3.3.3-1.7 0-2.8-.9-3.8-.7-.8-1.6-1.3-2.8-1.5m-.2 1.7c1.3.2 2 1.5 1.7 3.2-.3 1.8-1.3 2.8-2.6 2.6-1.3-.2-2-1.5-1.7-3.3.2-1.7 1.3-2.7 2.6-2.5m4.7 8l2.1.2.3-3.4.8.1 1.4 3.6 2.4.2-1.8-4c1.1-.5 1.6-1.2 1.7-2.3.1-.9-.3-1.7-.9-2.2-.5-.3-.9-.4-2.1-.6l-3.1-.3-.8 8.7zm2.5-4.8l.2-2.1h.8c1 .1 1.3.4 1.3 1.1-.1.7-.6 1.1-1.6 1h-.7zm5.8 5.4l2.1.1.1-3.2h.5c.9 0 1.6 0 2.1-.2 1.1-.4 1.7-1.3 1.7-2.5 0-.9-.3-1.6-.9-2.1-.5-.4-1-.6-2.1-.6l-3.4-.1-.1 8.6zm2.3-4.8l.1-2.2h.6c.6 0 .8 0 1 .1.3.2.5.5.5 1 0 .8-.5 1.1-1.7 1.1h-.5zm9-4c-1.2 0-2.2.4-3 1-1 .8-1.4 2-1.3 3.6.1 1.8.5 2.8 1.6 3.6.8.6 1.8.9 3 .8 1.2 0 2.2-.4 3-1 1-.8 1.4-2 1.3-3.7-.1-1.7-.6-2.8-1.6-3.6-.8-.5-1.8-.8-3-.7m0 1.6c1.3 0 2.2 1.1 2.3 2.8.1 1.8-.8 3-2.1 3s-2.2-1.1-2.3-2.9c0-1.7.8-2.8 2.1-2.9m6.3 7l2-.2-.4-3.4.8-.1 2.2 3.2 2.4-.3-2.6-3.5c.9-.7 1.3-1.5 1.2-2.6-.1-.9-.6-1.6-1.4-2-.5-.2-1-.2-2.2-.1l-3.1.4 1.1 8.6zm1.4-5.2l-.3-2.1.5-.1.3-.1c1-.1 1.4.1 1.5.8.1.7-.4 1.2-1.3 1.3h-.1l-.6.2zm9.8-5l-2.3.4-1.9 9.1 2-.3.4-1.9 3-.5.9 1.7 2.2-.3-4.3-8.2zm.6 5.4l-2.1.3.6-3.2 1.5 2.9zm5.8-5.1l2.3-.4-.3-1.6-6.7 1.4.3 1.6 2.4-.5 1.4 6.9 2.1-.4zm5.2.8l-.5-1.9 3.1-.9-.4-1.5-5.2 1.4 2.3 8.4 5.7-1.5-.5-1.6-3.6 1-.5-2 3.1-.8-.4-1.5zm3.7-4.8l2.7 8.3 3.3-1.1c.9-.3 1.7-.8 2.2-1.3.9-1 1.1-2.6.5-4.3-.9-2.6-2.7-3.5-5.3-2.7l-3.4 1.1zm2.4.9l.9-.3c.8-.2 1.1-.3 1.5-.2.7.2 1.3.9 1.7 1.9.3.9.3 1.9 0 2.4s-.7.8-1.4 1l-1 .3-1.7-5.1zm-62.8 14.6l-4.4-.8c-1.5 1.8-3.6 2.2-8.2 1.6l-.5 2.8 6.6.9-2.5 12.7 5.4 1 3.6-18.2zm7.1 9.8c-1.4.3-2 .6-2.7 1.2-.8.7-1.3 1.8-1.4 3-.1 1.7.6 3.3 1.9 4.3 1.4 1.2 3.5 1.8 6.6 2s5.2-.1 6.8-1.1c1.5-.9 2.4-2.3 2.5-4 .1-1.2-.2-2.3-1-3.2-.6-.7-1.1-1.1-2.5-1.6 2.3-1 3.2-2 3.3-3.8.2-3.2-2.6-5.2-7.8-5.6s-8.3 1.3-8.5 4.4c-.1 2 .7 3.2 2.8 4.4m5.6-5.5c1.8.1 2.9 1.1 2.8 2.5-.1 1.4-1.3 2.2-3.2 2.1-1.8-.1-2.9-1.1-2.8-2.5.1-1.4 1.3-2.2 3.2-2.1m-.5 7.5c2.2.2 3.5 1.3 3.3 2.9-.1 1.7-1.6 2.7-3.8 2.5s-3.5-1.4-3.4-3c.2-1.7 1.6-2.6 3.9-2.4m27.5-10.9l-14.4 1-.8 9.7 4.6.8c.8-1.1 1.6-1.6 3-1.7 2.2-.2 3.6.9 3.7 2.7.1 1.9-1.4 3.4-3.6 3.5-1.7.1-2.8-.5-3.5-1.8l-4.9 1.9c.7 1.2 1.3 1.8 2.5 2.4 1.6.8 3.5 1.1 6 .9 6.1-.4 9.5-3.3 9.2-7.6-.2-3.6-3.3-5.7-7.7-5.4-1.9.1-3 .5-4.4 1.5l.5-4 10.1-.7-.3-3.2zm22.8 11.1l-9.9 1.9c3.6-3.6 4.7-4.9 5.9-6.9 1-1.6 1.4-3.3 1.1-4.9-.6-3.3-3.8-4.5-9.1-3.4-2.6.5-4.4 1.3-5.4 2.5-.9 1-1.2 1.8-1.6 3.6l5.1 1c0-1.3.1-1.6.4-2.2.3-.7 1.1-1.2 2.1-1.4 1.7-.3 2.9.3 3.1 1.6.3 1.3-.3 2.7-1.8 4.5-1.4 1.7-3.8 4.2-7 7.3l.6 3.2 17.1-3.3-.6-3.5z" fill="#fff"/><path fill="#f99e1c" d="M260.7 294.4l6.7-3.8-1.4-7.6 5.7 5.2 6.8-3.7-3.2 7 5.6 5.4-7.7-.9-3.3 6.9-1.5-7.5z"/></g></svg>