<svg xmlns="http://www.w3.org/2000/svg" viewBox="-283 403.1 28.7 35.8"><style>.st0{fill:#fff}.st1{fill:#ed2127}</style><path class="st0" d="M-262.4 403.8H-282v33.4l10.7-.6h15.8l.7-25.2z" id="Layer_2"/><g id="Layer_1"><path id="XMLID_28_" class="st1" d="M-262 431.6V424h-6.4v7.6h-2.9l6.1 7.3 6.1-7.3z"/><path id="XMLID_25_" d="M-262 403.1h-21v35h13.7l-1.3-1.5h-10.9v-32h18.4v6.9c0 .4.3.8.8.8h6.5v24.3h-4l-1.3 1.5h6.8v-27.3l-7.7-7.7zm.4 7.6v-4.6l4.6 4.6h-4.6z" fill="#5b5a5c"/><path id="XMLID_16_" class="st0" d="M-279.5 417.3h-1.4v-6h2c.7 0 1.2 0 1.4.1.3.1.6.3.9.6.2.3.4.7.4 1.2 0 .4-.1.7-.2.9-.1.3-.3.5-.5.6l-.6.3c-.4.1-.8.1-1.3.1h-.7v2.2zm-1.2-.2h1v-2.2h.9c.5 0 .9 0 1.2-.1.2 0 .4-.1.6-.3.2-.1.3-.3.5-.5.1-.2.2-.5.2-.8 0-.4-.1-.8-.3-1.1-.4-.2-.6-.4-.9-.5-.3 0-.7-.1-1.4-.1h-1.8v5.6zm1.7-3h-.7v-1.8h1.6c.2 0 .4.1.5.3.1.2.2.3.2.6 0 .2-.1.4-.1.5-.1.1-.2.3-.4.3-.3.1-.6.1-1.1.1m-.5-.2h.5c.4 0 .7 0 .9-.1.1-.1.2-.1.3-.2.1-.1.1-.2.1-.4s-.1-.3-.2-.5c0-.1-.2-.1-.3-.2h-1.3v1.4z"/><path id="XMLID_8_" class="st0" d="M-273.2 417.2h-2.2v-5.9h2.2c.5 0 .9 0 1.1.1.4.1.7.3.9.6.3.3.4.6.6 1 .1.4.2.8.2 1.4 0 .5-.1.9-.2 1.3s-.4.8-.6 1.1c-.2.2-.5.4-.9.5-.3-.1-.6-.1-1.1-.1m-2.1-.2h2.1c.4 0 .8 0 1-.1.3-.1.6-.3.8-.4.3-.2.5-.6.6-1 .1-.3.2-.7.2-1.2s-.1-1-.2-1.3c-.1-.4-.3-.7-.5-.9-.2-.2-.5-.4-.8-.5-.2-.1-.6-.1-1.1-.1h-2l-.1 5.5zm2-.8h-1v-4h.6c.5 0 .8 0 1 .1.2.1.4.1.6.3.2.1.3.3.4.6.1.3.1.6.1 1.1s0 .8-.1 1.1c-.1.3-.2.5-.3.6s-.3.2-.5.3c-.2-.1-.5-.1-.8-.1m-.8-.1h.8c.3 0 .5 0 .7-.1.2 0 .3-.1.4-.2.1-.1.2-.3.3-.5.1-.2.1-.6.1-1s0-.8-.1-1c-.1-.2-.2-.4-.3-.5-.1-.1-.3-.2-.5-.2s-.5-.1-.9-.1h-.5v3.6z"/><g id="XMLID_92_"><g id="XMLID_93_"><g id="XMLID_94_"><path id="XMLID_97_" class="st1" d="M-278.2 412.4h-1.4v1.6h.6c.5 0 .8 0 .9-.1.2-.1.3-.2.4-.3.1-.1.1-.3.1-.4 0-.2-.1-.4-.2-.5-.1-.1-.2-.2-.4-.3z"/><path id="XMLID_100_" class="st1" d="M-262.3 413.4c-1.1 0-1.9-.9-1.9-1.9v-2H-283v9.7h21.8v-5.8h-1.1zm-14.3.7c-.1.2-.3.4-.5.6l-.6.3c-.3.1-.7.1-1.2.1h-.7v2.2h-1.2v-5.9h1.9c.7 0 1.2 0 1.4.1.3.1.6.3.8.6.2.3.3.7.3 1.1 0 .4 0 .7-.2.9zm5.8 1.5c-.1.4-.3.8-.6 1-.2.2-.5.3-.8.5-.3.1-.6.1-1 .1h-2.2v-5.8h2.1c.5 0 .8 0 1.1.1.3.1.6.3.9.5.2.3.4.6.5.9.1.4.2.8.2 1.4 0 .5 0 .9-.2 1.3zm5.1-2.9h-2.1v.7h1.9v1.5h-1.9v2.3h-1.7v-6h3.7l.1 1.5z"/><path id="XMLID_103_" class="st1" d="M-272.2 412.7c-.1-.1-.3-.2-.5-.3-.2 0-.5-.1-1-.1h-.6v3.8h.9c.3 0 .6 0 .7-.1.2 0 .3-.1.5-.2.1-.1.2-.3.3-.6.1-.3.1-.6.1-1.1 0-.4 0-.8-.1-1-.1 0-.2-.2-.3-.4z"/></g></g></g></g></svg>