<svg xmlns="http://www.w3.org/2000/svg" viewBox="0 0 512 512"><path d="M428.04 224.391H227.942c-9.024 0-16.34 7.316-16.34 16.34 0 9.024 7.316 16.34 16.34 16.34H428.04c9.024 0 16.34-7.316 16.34-16.34 0-9.024-7.316-16.34-16.34-16.34zm0 50.481H227.942c-9.024 0-16.34 7.316-16.34 16.34 0 9.024 7.316 16.34 16.34 16.34H428.04c9.024 0 16.34-7.316 16.34-16.34 0-9.024-7.316-16.34-16.34-16.34z"/><path d="M465.553 157.482h-97.532v-41.075c0-25.61-20.835-46.446-46.446-46.446H46.457C20.841 69.961 0 90.797 0 116.407v124.075c0 23.89 18.132 43.623 41.361 46.168l-14.139 46.745c-4.352 14.384 11.352 26.307 24.003 18.77l92.754-55.256v31.106c0 25.611 20.835 46.446 46.446 46.446H351.28l109.494 65.235c12.724 7.58 28.338-4.433 24.005-18.766l-14.132-46.747C493.87 371.639 512 351.904 512 328.015V203.928c0-25.61-20.836-46.446-46.447-46.446zm-321.574 46.446v54.94l-73.276 43.653 8.228-27.201c3.171-10.48-4.684-21.072-15.641-21.072H46.457c-7.597 0-13.776-6.176-13.776-13.765V116.407c0-7.59 6.18-13.765 13.776-13.765h275.118c7.591 0 13.765 6.176 13.765 13.765v41.075H190.425c-25.611 0-46.446 20.836-46.446 46.446zM479.32 328.015h-.001c0 7.591-6.176 13.765-13.766 13.765H448.72c-10.949 0-18.81 10.583-15.641 21.068l8.225 27.206-77.161-45.972a16.342 16.342 0 0 0-8.364-2.303H190.425c-7.591 0-13.765-6.174-13.765-13.765V203.928c0-7.591 6.174-13.765 13.765-13.765h275.129c7.591 0 13.766 6.176 13.766 13.765v124.087z"/></svg>